<svg width="13" height="23" viewBox="0 0 13 23" fill="none" xmlns="http://www.w3.org/2000/svg">
<path d="M1.08184 19.0959L1.08179 19.0958L1.07557 19.1021C0.703324 19.479 0.495381 19.9862 0.500078 20.5149C0.504775 21.0435 0.721684 21.547 1.10044 21.9174C1.47884 22.2874 1.98844 22.4954 2.51891 22.4999C3.04938 22.5044 3.56249 22.3051 3.94728 21.9417L3.94733 21.9417L3.95354 21.9357L11 15.0446L11 15.0445C11.9591 14.1063 12.5 12.8316 12.5 11.5C12.5 10.1684 11.9591 8.89371 11 7.95549L11 7.95543L3.95354 1.06434L3.95359 1.06428L3.94728 1.05832C3.56249 0.694869 3.04938 0.495567 2.51891 0.500074C1.98844 0.504582 1.47884 0.712586 1.10044 1.08264C0.721686 1.45305 0.504777 1.95647 0.50008 2.48514C0.495382 3.01382 0.703325 3.52097 1.07557 3.89788L1.07551 3.89793L1.08184 3.90412L8.13273 10.7951C8.13275 10.7951 8.13276 10.7951 8.13278 10.7951C8.13282 10.7951 8.13286 10.7952 8.1329 10.7952C8.32591 10.9841 8.43224 11.2379 8.43224 11.5C8.43224 11.7621 8.32591 12.0159 8.1329 12.2048C8.13286 12.2048 8.13282 12.2049 8.13278 12.2049C8.13276 12.2049 8.13275 12.2049 8.13273 12.2049L1.08184 19.0959Z" fill="white" stroke="white"/>
</svg>
