<svg width="30" height="30" viewBox="0 0 30 30" fill="none" xmlns="http://www.w3.org/2000/svg">
<circle cx="15" cy="15" r="15" fill="#41CE75"/>
<path d="M11.2976 19.8452L11.2977 19.8453C11.7271 20.2657 12.3073 20.5 12.9102 20.5C13.513 20.5 14.0932 20.2657 14.5227 19.8453L14.5227 19.8452L22.1827 12.3452L22.1827 12.3452L22.1888 12.339C22.3896 12.1355 22.5025 11.8608 22.5 11.5734C22.4974 11.2861 22.3796 11.0134 22.1754 10.8135C21.9716 10.6139 21.698 10.5025 21.4141 10.5C21.1302 10.4976 20.8547 10.6044 20.6475 10.8004L20.6474 10.8003L20.6412 10.8064L12.9813 18.3064C12.9813 18.3064 12.9813 18.3064 12.9813 18.3064C12.9642 18.3232 12.9388 18.3344 12.9102 18.3344C12.8815 18.3344 12.8561 18.3231 12.839 18.3064L10.3588 15.8779L10.3588 15.8779L10.3525 15.8719C10.1453 15.6759 9.86982 15.5692 9.58594 15.5716C9.30204 15.574 9.02843 15.6854 8.82457 15.885C8.62037 16.085 8.50259 16.3577 8.50004 16.645C8.49749 16.9323 8.61043 17.2071 8.81116 17.4106L9.16713 17.0595L8.81732 17.4167L11.2976 19.8452Z" fill="white" stroke="white"/>
</svg>
