<svg width="13" height="23" viewBox="0 0 13 23" fill="none" xmlns="http://www.w3.org/2000/svg">
<path d="M11.9182 3.90418L11.9182 3.90412L4.86727 10.7951C4.67415 10.984 4.56776 11.2378 4.56776 11.5C4.56776 11.7621 4.67409 12.0159 4.8671 12.2048L11.9182 3.90418ZM11.9182 3.90418L11.9244 3.89788C12.2967 3.52097 12.5046 3.01382 12.4999 2.48514C12.4952 1.95647 12.2783 1.45305 11.8996 1.08264C11.5212 0.712588 11.0116 0.504583 10.4811 0.500075C9.95062 0.495567 9.43751 0.694871 9.05272 1.05832L9.05267 1.05826L9.04646 1.06434L2.00002 7.95543L1.99997 7.95549C1.04088 8.89371 0.5 10.1684 0.5 11.5C0.5 12.8316 1.04088 14.1063 1.99997 15.0445L2.00002 15.0446L9.04646 21.9357L9.04641 21.9357L9.05272 21.9417C9.43751 22.3051 9.95062 22.5044 10.4811 22.4999C11.0116 22.4954 11.5212 22.2874 11.8996 21.9174C12.2783 21.547 12.4952 21.0435 12.4999 20.5149C12.5046 19.9862 12.2967 19.479 11.9244 19.1021L11.9245 19.1021L11.9182 19.0959L4.86727 12.2049L11.9182 3.90418Z" fill="#FF4F00" stroke="#FF4F00"/>
</svg>
