<svg width="26" height="26" viewBox="0 0 26 26" fill="none" xmlns="http://www.w3.org/2000/svg">
<g clip-path="url(#clip0)">
<path d="M23.8672 9.14062H16.7251C16.7477 8.89009 16.76 8.63638 16.76 8.3799C16.76 3.7592 13.0006 0 8.3799 0C6.90804 0 5.46017 0.387207 4.19283 1.11957C3.95003 1.25981 3.86691 1.57045 4.00716 1.81325C4.1476 2.05624 4.45824 2.13916 4.70103 1.99892C5.81406 1.35562 7.08617 1.01562 8.3799 1.01562C12.4406 1.01562 15.7444 4.31918 15.7444 8.3799C15.7444 12.4406 12.4406 15.7444 8.3799 15.7444C6.68011 15.7444 5.08328 15.1812 3.76198 14.116C3.62947 14.0093 3.45392 13.9773 3.29404 14.0263L1.94615 14.3788L2.4742 13.2184C2.55017 13.0518 2.53033 12.8574 2.42262 12.7092C1.50221 11.445 1.01562 9.94797 1.01562 8.3799C1.01562 7.08279 1.35741 5.80751 2.00407 4.69211C2.14471 4.44931 2.062 4.13867 1.8194 3.99803C1.5768 3.85739 1.26616 3.93991 1.12532 4.18271C0.389191 5.45264 0 6.90407 0 8.3799C0 10.0638 0.493332 11.6763 1.42961 13.0619L0.579422 14.9299C0.498093 15.1082 0.526855 15.3173 0.653015 15.4673C0.779175 15.6172 0.980316 15.6811 1.16995 15.6315L3.32954 15.067C4.77721 16.1605 6.5603 16.76 8.3799 16.76C8.77603 16.76 9.16542 16.7316 9.54688 16.6783V21.125C9.54688 22.3009 10.5036 23.2578 11.6795 23.2578H18.8617L22.073 25.8851C22.1654 25.9609 22.2795 25.9998 22.3945 25.9998C22.4685 25.9998 22.5427 25.9837 22.6119 25.951C22.7893 25.8669 22.9023 25.6884 22.9023 25.492V23.2578H23.8672C25.0433 23.2578 26 22.3009 26 21.125V11.2734C26 10.0973 25.0433 9.14062 23.8672 9.14062V9.14062ZM24.9844 21.125C24.9844 21.7409 24.4833 22.2422 23.8672 22.2422H22.3945C22.114 22.2422 21.8867 22.4695 21.8867 22.75V24.4204L19.3786 22.3683C19.2403 22.2422 19.1193 22.2422 18.8474 22.2422H11.6795C11.0636 22.2422 10.5625 21.7409 10.5625 21.125V16.471C13.5663 15.6599 15.9066 13.2172 16.5698 10.1562H23.8672C24.4833 10.1562 24.9844 10.6573 24.9844 11.2734V21.125Z" fill="#515151"/>
<path d="M20.3004 17.7026C20.4726 17.6215 20.592 17.4467 20.592 17.2436C20.592 16.9633 20.3646 16.7358 20.0842 16.7358H19.8763L18.2386 13.0034C18.1574 12.8187 17.9749 12.6995 17.7734 12.6995C17.5719 12.6995 17.3894 12.8187 17.3084 13.0034L15.6707 16.7358H15.4629C15.1824 16.7358 14.955 16.9633 14.955 17.2436C14.955 17.4467 15.0745 17.6215 15.2466 17.7026L14.6367 19.0927C14.524 19.3496 14.6408 19.6492 14.8975 19.7618C15.1544 19.8745 15.4539 19.7577 15.5666 19.5008L16.3343 17.7514H19.2127L19.9804 19.5008C20.0639 19.6912 20.2502 19.8047 20.4458 19.8047C20.5138 19.8047 20.583 19.791 20.6495 19.7618C20.9062 19.6492 21.0232 19.3496 20.9103 19.0927L20.3004 17.7026ZM16.7798 16.7358L17.7734 14.4713L18.767 16.7358H16.7798Z" fill="#515151"/>
<path d="M2.81342 3.32104C2.94691 3.32104 3.07784 3.26669 3.17246 3.17227C3.26688 3.07785 3.32123 2.94693 3.32123 2.81323C3.32123 2.67973 3.26688 2.54881 3.17246 2.45419C3.07784 2.35977 2.94691 2.30542 2.81342 2.30542C2.67932 2.30542 2.5488 2.35977 2.45438 2.45419C2.35995 2.54881 2.3056 2.67973 2.3056 2.81323C2.3056 2.94693 2.35995 3.07785 2.45438 3.17227C2.5488 3.26689 2.67972 3.32104 2.81342 3.32104Z" fill="#515151"/>
<path d="M5.34866 11.4704C5.10269 11.6053 5.01263 11.9139 5.14752 12.1599C5.23996 12.3283 5.41392 12.4237 5.59324 12.4237C5.67576 12.4237 5.75947 12.4035 5.83703 12.3611C6.9695 11.74 7.84071 10.7739 8.35031 9.63474C8.86011 10.7739 9.73112 11.74 10.8636 12.3611C10.9411 12.4035 11.0249 12.4237 11.1074 12.4237C11.2867 12.4237 11.4607 12.3283 11.5531 12.1599C11.688 11.9139 11.5979 11.6053 11.352 11.4704C10.0263 10.7434 9.13405 9.44411 8.91247 7.97601H11.1671C11.4476 7.97601 11.6749 7.74869 11.6749 7.4682C11.6749 7.18771 11.4476 6.96039 11.1671 6.96039H8.85812V4.84424C8.85812 4.56375 8.6308 4.33643 8.35031 4.33643C8.06982 4.33643 7.8425 4.56375 7.8425 4.84424V6.96039H6.00802C5.72754 6.96039 5.50021 7.18771 5.50021 7.4682C5.50021 7.74869 5.72754 7.97601 6.00802 7.97601H7.78815C7.56657 9.44411 6.67433 10.7436 5.34866 11.4704Z" fill="#515151"/>
</g>
<defs>
<clipPath id="clip0">
<rect width="26" height="26" fill="white"/>
</clipPath>
</defs>
</svg>
