<svg width="741" height="508" viewBox="0 0 741 508" fill="none" xmlns="http://www.w3.org/2000/svg">
<path d="M663.617 275.148H306.281C292.731 275.148 281.845 264.715 281.845 251.892V64.8277C281.845 51.9318 292.807 41.5715 306.281 41.5715H663.617C677.167 41.5715 688.053 52.0042 688.053 64.8277V251.892C688.053 264.715 677.091 275.148 663.617 275.148Z" fill="#FFCA76"/>
<mask id="mask0" mask-type="alpha" maskUnits="userSpaceOnUse" x="281" y="41" width="408" height="235">
<path d="M663.617 275.148H306.281C292.731 275.148 281.845 264.715 281.845 251.892V64.8277C281.845 51.9318 292.807 41.5715 306.281 41.5715H663.617C677.167 41.5715 688.053 52.0042 688.053 64.8277V251.892C688.053 264.715 677.091 275.148 663.617 275.148Z" fill="white"/>
</mask>
<g mask="url(#mask0)">
<rect x="328.586" y="166.039" width="10.4293" height="118.31" fill="#FFDC9F"/>
<rect x="376.393" y="176.327" width="10.4293" height="108.964" fill="#FFDC9F"/>
<rect x="425.418" y="115.18" width="10.4293" height="169.531" fill="#FFDC9F"/>
<rect x="472.769" y="114.311" width="10.4293" height="178.587" fill="#FFDC9F"/>
<rect x="524.915" y="128.366" width="10.4293" height="161.272" fill="#FFDC9F"/>
<rect x="577.29" y="83.7371" width="10.4293" height="199.308" fill="#FFDC9F"/>
<rect x="629.588" y="109.384" width="10.4293" height="174.965" fill="#FFDC9F"/>
<ellipse rx="4.87161" ry="5.08421" transform="matrix(0.273993 -0.961732 0.968283 0.249856 333.819 166.352)" fill="#FF8249"/>
<ellipse cx="381.57" cy="177.197" rx="5.10045" ry="4.8541" fill="#FF8249"/>
<path d="M435.695 115.18C435.695 117.861 433.412 120.034 430.595 120.034C427.778 120.034 425.495 117.861 425.495 115.18C425.495 112.499 427.778 110.326 430.595 110.326C433.412 110.326 435.695 112.499 435.695 115.18Z" fill="#FF8249"/>
<path d="M483.046 115.18C483.046 117.861 480.762 120.034 477.945 120.034C475.129 120.034 472.845 117.861 472.845 115.18C472.845 112.499 475.129 110.326 477.945 110.326C480.838 110.326 483.046 112.499 483.046 115.18Z" fill="#FF8249"/>
<ellipse cx="530.168" cy="129.235" rx="5.10045" ry="4.8541" fill="#FF8249"/>
<ellipse rx="4.86065" ry="5.09435" transform="matrix(0.168103 -0.985769 0.988281 0.152645 582.481 83.7442)" fill="#FF8249"/>
<ellipse cx="634.841" cy="110.181" rx="5.10045" ry="4.8541" fill="#FF8249"/>
<path d="M700.386 45.3389L634.841 110.181L582.466 83.737L530.168 129.235L478.021 115.18H430.671L381.57 177.197L333.839 166.402L265.325 211.682" stroke="#FF8249" stroke-width="6" stroke-linecap="round" stroke-linejoin="round"/>
</g>
<path d="M698.939 508H36.2619C21.6457 508 9.84619 496.77 9.84619 482.86V482.86C9.84619 468.95 21.6457 457.72 36.2619 457.72H698.863C713.479 457.72 725.279 468.95 725.279 482.86V482.86C725.355 496.77 713.479 508 698.939 508Z" fill="#F4B36C"/>
<rect width="115.103" height="93.8943" transform="matrix(-1 4.02757e-05 -4.44674e-05 -1 604.633 475.341)" fill="white" stroke="#0A1F44" stroke-width="2" stroke-linecap="round" stroke-linejoin="round"/>
<rect width="35.0941" height="93.8943" transform="matrix(-1 4.12983e-05 -4.55965e-05 -1 524.594 475.346)" fill="white" stroke="#0A1F44" stroke-width="2" stroke-linecap="round" stroke-linejoin="round"/>
<rect width="15.3775" height="23.546" transform="matrix(-1 3.77586e-05 -4.16883e-05 -1 573.958 404.945)" fill="#FFC466" stroke="#0A1F44" stroke-width="2" stroke-linecap="round" stroke-linejoin="round"/>
<path d="M513.724 461.633H517.074C517.988 461.633 518.749 460.908 518.749 460.039V455.329C518.749 454.46 517.988 453.736 517.074 453.736H513.724C512.811 453.736 512.05 454.46 512.05 455.329V460.039C512.05 460.908 512.811 461.633 513.724 461.633Z" fill="#0A1F44"/>
<path d="M506.949 471.631H517.912C518.368 471.631 518.749 471.268 518.749 470.834V470.544C518.749 470.109 518.368 469.747 517.912 469.747H506.949C506.493 469.747 506.112 470.109 506.112 470.544V470.834C506.112 471.268 506.493 471.631 506.949 471.631Z" fill="#0A1F44"/>
<path d="M506.949 466.342H517.912C518.368 466.342 518.749 465.979 518.749 465.545V465.255C518.749 464.82 518.368 464.458 517.912 464.458H506.949C506.493 464.458 506.112 464.82 506.112 465.255V465.545C506.112 465.979 506.493 466.342 506.949 466.342Z" fill="#0A1F44"/>
<path d="M532.604 394.762L538.161 388.097L543.718 394.762H540.521V401.065H535.801V394.762H532.604Z" fill="#0A1F44"/>
<rect x="548.21" y="255.949" width="65.0878" height="53.6125" fill="white" stroke="#0A1F44" stroke-width="2" stroke-linecap="round" stroke-linejoin="round"/>
<path d="M564.044 298.477H557.573C556.66 298.477 555.898 297.752 555.898 296.883V295.579C555.898 294.709 556.66 293.985 557.573 293.985H564.044C564.957 293.985 565.719 294.709 565.719 295.579V296.883C565.795 297.752 565.034 298.477 564.044 298.477Z" fill="#0A1F44"/>
<path d="M573.864 304.128H556.508C556.203 304.128 555.975 303.91 555.975 303.621V303.621C555.975 303.331 556.203 303.114 556.508 303.114H573.864C574.169 303.114 574.397 303.331 574.397 303.621V303.621C574.397 303.91 574.169 304.128 573.864 304.128Z" fill="#0A1F44"/>
<path d="M573.864 301.157H556.508C556.203 301.157 555.975 300.94 555.975 300.65V300.65C555.975 300.36 556.203 300.143 556.508 300.143H573.864C574.169 300.143 574.397 300.36 574.397 300.65V300.65C574.397 300.868 574.169 301.157 573.864 301.157Z" fill="#0A1F44"/>
<rect x="413.771" y="394.472" width="88.9914" height="80.8534" fill="white" stroke="#0A1F44" stroke-width="2" stroke-linecap="round" stroke-linejoin="round"/>
<rect x="446.429" y="394.472" width="16.3671" height="20.2133" fill="#FFC466" stroke="#0A1F44" stroke-width="2" stroke-linecap="round" stroke-linejoin="round"/>
<path d="M490.43 405.991L484.492 400.195L478.63 405.991H481.98V411.425H487.004V405.991H490.43Z" fill="#0A1F44"/>
<path d="M55.9024 423.524C55.065 419.394 34.2065 382.445 41.134 362.232C44.9403 351.22 36.4903 345.424 36.1858 335.426C35.5768 315.285 49.8123 301.737 59.4042 318.328C68.9961 334.919 57.6533 343.178 62.906 357.233C68.1587 371.288 80.3389 370.491 75.0862 388.748C69.8335 406.933 55.9024 423.524 55.9024 423.524Z" fill="#0FB763" stroke="#0A1F44" stroke-width="2" stroke-linecap="round" stroke-linejoin="round"/>
<path d="M59.861 430.189C58.5668 395.124 54.6844 360.131 48.2137 325.645C48.0614 324.848 46.7673 325.21 46.9195 326.007C53.3902 360.421 57.1965 395.269 58.4907 430.262C58.5668 430.986 59.861 430.986 59.861 430.189V430.189Z" fill="#0A1F44"/>
<path d="M99.3705 329.05C114.52 333.832 101.121 340.642 93.2804 361.363C85.4394 382.083 104.623 389.545 90.6921 403.6C76.7611 417.656 54.1516 424.321 54.1516 424.321C54.1516 424.321 55.9025 391.212 61.0791 374.621C66.3318 358.03 80.2628 355.567 79.3493 344.772C78.512 334.049 88.9412 325.79 99.3705 329.05Z" fill="#0AEA7F" stroke="#0A1F44" stroke-width="2" stroke-linecap="round" stroke-linejoin="round"/>
<path d="M41.0579 418.525C41.0579 416.062 21.0367 411.932 18.4484 392.009C15.8602 372.157 16.6975 376.287 5.35477 360.493C-5.98802 344.699 11.4449 319.052 23.625 331.513C35.8052 343.975 36.7187 360.493 47.148 367.158C57.5772 373.751 64.5808 380.417 62.8299 396.138C61.079 411.86 54.1516 424.321 54.1516 424.321L41.0579 418.525Z" fill="#0AEA7F" stroke="#0A1F44" stroke-width="2" stroke-linecap="round" stroke-linejoin="round"/>
<path d="M25.4521 360.131C42.8088 380.851 49.9647 407.006 56.6638 432.218C56.8921 433.015 58.1863 432.653 57.9579 431.856C51.1827 406.426 43.8746 380.127 26.3656 359.189C25.9088 358.537 24.9192 359.479 25.4521 360.131V360.131Z" fill="#0A1F44"/>
<path d="M86.0484 346.366C76.4565 374.259 66.7885 403.021 69.3007 432.798C69.3768 433.595 70.6709 433.595 70.6709 432.798C68.1588 403.166 77.8268 374.476 87.3425 346.728C87.6471 345.931 86.3529 345.641 86.0484 346.366V346.366Z" fill="#0A1F44"/>
<path d="M2.08025 352.669C5.35367 344.047 13.5753 345.496 16.1636 338.469C18.7519 331.296 18.7519 328.543 23.7001 331.586C13.3469 321.081 -0.660284 337.744 2.08025 352.669Z" fill="#0FB763" stroke="#0A1F44" stroke-width="2" stroke-linecap="round" stroke-linejoin="round"/>
<path d="M35.2723 407.803C34.1304 401.717 30.3241 397.297 23.9295 392.878C19.6664 389.908 18.7529 384.546 16.3169 378.388C17.002 381.286 17.5349 385.271 18.3723 392.081C20.1993 405.846 30.3241 412.077 36.4142 415.41C36.1858 413.236 35.8052 410.483 35.2723 407.803Z" fill="#0FB763" stroke="#0A1F44" stroke-width="2" stroke-linecap="round" stroke-linejoin="round"/>
<path d="M99.3704 329.05C96.3254 328.108 93.2803 328.108 90.5398 328.905C95.9447 329.557 91.3011 335.136 91.6056 339.555C91.9862 345.062 100.284 343.178 93.3565 361.363C101.121 340.715 114.596 333.904 99.3704 329.05Z" fill="#0FB763" stroke="#0A1F44" stroke-width="2" stroke-linecap="round" stroke-linejoin="round"/>
<path d="M15.4795 344.047C17.611 348.612 20.3516 352.814 23.7011 356.653C24.234 357.305 25.2236 356.364 24.6146 355.784C21.3412 352.017 18.6768 347.887 16.6214 343.468C16.2408 342.671 15.0989 343.323 15.4795 344.047V344.047Z" fill="#1AAA62"/>
<path d="M10.6836 347.815C13.8048 351.872 17.5349 355.422 21.7219 358.537C22.407 359.044 23.0921 357.958 22.407 357.45C18.3723 354.48 14.8705 351.075 11.8255 347.235C11.2926 346.511 10.1507 347.163 10.6836 347.815V347.815Z" fill="#1AAA62"/>
<path d="M8.09528 352.741C10.4552 355.132 12.9673 357.306 15.784 359.262C18.7529 361.363 22.1786 363.029 24.7669 365.637C25.3759 366.217 26.2894 365.347 25.6804 364.768C23.5489 362.667 20.8845 361.218 18.3723 359.551C14.9466 357.305 11.9016 354.77 9.08492 351.872C8.39979 351.292 7.48627 352.162 8.09528 352.741V352.741Z" fill="#1AAA62"/>
<path d="M14.9467 368.318C19.971 372.737 25.7566 375.925 32.2273 377.953C33.0647 378.171 33.3692 377.012 32.6079 376.722C26.3656 374.766 20.7322 371.723 15.9363 367.448C15.2512 366.869 14.3377 367.738 14.9467 368.318V368.318Z" fill="#1AAA62"/>
<path d="M12.0538 362.232C17.0782 366.651 22.8637 369.839 29.3345 371.868C30.1718 372.085 30.4763 370.926 29.7151 370.636C23.4727 368.68 17.8394 365.637 13.0435 361.363C12.3583 360.783 11.4448 361.652 12.0538 362.232V362.232Z" fill="#1AAA62"/>
<path d="M23.625 385.126C28.6493 389.328 35.6529 390.197 40.525 394.544C41.134 395.124 42.1236 394.182 41.4385 393.675C36.5664 389.328 29.4867 388.459 24.5385 384.257C23.9295 383.749 22.9399 384.619 23.625 385.126V385.126Z" fill="#1AAA62"/>
<path d="M20.7322 377.953C25.7566 382.156 32.7602 383.025 37.6322 387.372C38.2412 387.951 39.2309 387.01 38.5457 386.502C33.6737 382.156 26.594 381.286 21.6458 377.084C21.0368 376.504 20.0471 377.446 20.7322 377.953V377.953Z" fill="#1AAA62"/>
<path d="M29.106 392.661C33.9781 395.196 38.7741 397.877 43.4177 400.847C44.1029 401.282 44.788 400.195 44.1029 399.761C39.4592 396.79 34.7394 394.11 29.7912 391.574C29.0299 391.139 28.3448 392.226 29.106 392.661V392.661Z" fill="#1AAA62"/>
<path d="M36.5664 403.311C40.0682 404.397 43.57 405.629 47.0718 406.861C47.9092 407.151 48.2137 405.919 47.4524 405.629C43.9506 404.397 40.525 403.238 36.947 402.079C36.1097 401.862 35.729 403.093 36.5664 403.311V403.311Z" fill="#1AAA62"/>
<path d="M26.6701 339.99C28.1926 345.496 28.8777 351.002 28.6493 356.726C28.6493 357.523 29.9435 357.523 30.0196 356.726C30.248 350.93 29.5628 345.279 28.0403 339.7C27.7358 338.831 26.4417 339.193 26.6701 339.99V339.99Z" fill="#1AAA62"/>
<path d="M22.0264 336.368C23.5489 341.874 24.234 347.38 24.0057 353.103C24.0057 353.9 25.2998 353.9 25.3759 353.103C25.6043 347.308 24.9192 341.656 23.3966 336.078C23.0921 335.281 21.798 335.571 22.0264 336.368V336.368Z" fill="#1AAA62"/>
<path d="M32.9124 352.741C33.8259 357.233 34.0543 361.58 34.0543 366.144C34.0543 366.941 35.4246 366.941 35.4246 366.144C35.4246 361.507 35.1962 357.016 34.2065 352.451C33.9782 351.582 32.684 351.944 32.9124 352.741V352.741Z" fill="#1AAA62"/>
<path d="M40.9056 365.275C40.9056 369.042 41.0579 372.737 39.7638 376.36C39.4593 377.157 40.7534 377.446 41.0579 376.722C42.4282 372.954 42.352 369.187 42.2759 365.275C42.2759 364.478 40.9056 364.478 40.9056 365.275V365.275Z" fill="#1AAA62"/>
<path d="M36.8709 360.276C36.8709 364.043 37.0232 367.738 35.729 371.361C35.4245 372.158 36.7187 372.447 37.0232 371.723C38.3934 367.956 38.3173 364.188 38.2412 360.276C38.2412 359.479 36.8709 359.479 36.8709 360.276V360.276Z" fill="#1AAA62"/>
<path d="M45.93 369.26C46.7673 374.476 45.93 379.547 43.4178 384.257C43.0372 384.981 44.1791 385.633 44.5597 384.909C47.3002 379.91 48.1376 374.548 47.2241 368.97C47.0718 368.173 45.7777 368.463 45.93 369.26V369.26Z" fill="#1AAA62"/>
<path d="M49.4317 374.621C49.2795 380.417 48.5182 386.213 47.2241 391.864C47.0718 392.661 48.2898 393.023 48.5182 392.226C49.8885 386.43 50.6497 380.562 50.802 374.621C50.802 373.824 49.5078 373.824 49.4317 374.621V374.621Z" fill="#1AAA62"/>
<path d="M54.3799 381.286C54.2276 387.082 53.4664 392.878 52.1722 398.529C52.02 399.326 53.238 399.688 53.4664 398.891C54.8367 393.095 55.5979 387.227 55.7502 381.286C55.7502 380.489 54.3799 380.489 54.3799 381.286V381.286Z" fill="#1AAA62"/>
<path d="M54.3799 398.384C54.3799 401.065 53.847 403.601 52.7051 406.064C52.4006 406.788 53.5425 407.44 53.847 406.716C55.065 404.035 55.6741 401.282 55.6741 398.384C55.6741 397.587 54.3799 397.587 54.3799 398.384V398.384Z" fill="#1AAA62"/>
<path d="M90.0831 333.035C88.6367 336.512 88.256 340.28 86.8097 343.757C86.5052 344.482 87.7993 344.844 88.1038 344.12C89.5502 340.642 89.9308 336.875 91.3772 333.397C91.6817 332.6 90.3876 332.31 90.0831 333.035V333.035Z" fill="#1AAA62"/>
<path d="M84.3736 335.716C84.1452 338.686 84.1452 341.584 84.2213 344.554C84.2213 345.351 85.5916 345.351 85.5916 344.554C85.4393 341.584 85.5155 338.686 85.7438 335.716C85.7438 334.919 84.4497 334.919 84.3736 335.716V335.716Z" fill="#1AAA62"/>
<path d="M80.1106 348.974C80.1867 351.582 80.4912 354.045 81.1002 356.581C81.2525 357.378 82.5466 357.016 82.3944 356.219C81.8615 353.828 81.4809 351.437 81.4809 348.974C81.4047 348.177 80.1106 348.177 80.1106 348.974V348.974Z" fill="#1AAA62"/>
<path d="M75.1624 356.943C75.6191 360.348 76.2281 363.681 76.8371 367.086C76.9894 367.883 78.2835 367.521 78.1313 366.724C77.5223 363.464 76.9894 360.203 76.5326 356.943C76.4565 356.146 75.0862 356.146 75.1624 356.943V356.943Z" fill="#1AAA62"/>
<path d="M69.8335 363.174C71.1277 369.042 71.9651 374.983 72.498 380.996C72.5741 381.793 73.8682 381.793 73.8682 380.996C73.3353 374.911 72.4218 368.825 71.1277 362.884C70.8993 362.087 69.6052 362.377 69.8335 363.174V363.174Z" fill="#1AAA62"/>
<path d="M66.6362 369.839C67.702 376.142 68.92 382.373 70.2903 388.604C70.4425 389.401 71.7367 389.038 71.5844 388.241C70.2141 382.011 68.9961 375.78 67.9303 369.477C67.7781 368.68 66.484 369.042 66.6362 369.839V369.839Z" fill="#1AAA62"/>
<path d="M63.8958 375.78C64.5048 383.315 65.3422 390.777 67.7021 398.022C67.9304 398.819 69.2246 398.457 68.9962 397.66C66.7124 390.487 65.875 383.17 65.266 375.708C65.1899 374.911 63.8196 374.911 63.8958 375.78V375.78Z" fill="#1AAA62"/>
<path d="M63.8957 397.732C64.8092 400.992 65.875 404.18 67.1691 407.368C67.4736 408.092 68.7678 407.803 68.4633 407.006C67.2452 403.818 66.1033 400.63 65.1898 397.37C64.9615 396.645 63.7434 396.935 63.8957 397.732V397.732Z" fill="#1AAA62"/>
<path d="M84.5259 363.246C87.4187 362.16 90.007 360.566 92.2908 358.537C92.8998 357.957 91.9863 357.088 91.3772 357.668C89.3218 359.551 86.8858 361.073 84.2214 362.087C83.384 362.304 83.6885 363.536 84.5259 363.246V363.246Z" fill="#1AAA62"/>
<path d="M81.7852 371.723C84.6019 369.767 87.2663 367.738 89.9307 365.71C90.6159 365.202 89.6262 364.333 89.0172 364.84C86.4289 366.869 83.7645 368.825 81.1001 370.709C80.4911 371.143 81.1001 372.23 81.7852 371.723V371.723Z" fill="#1AAA62"/>
<path d="M78.6642 383.967C83.1556 382.011 87.038 379.185 90.2353 375.563C90.7682 374.911 89.8547 374.041 89.3218 374.693C86.2007 378.243 82.3943 380.924 78.0552 382.88C77.2178 383.242 77.9029 384.329 78.6642 383.967V383.967Z" fill="#1AAA62"/>
<path d="M77.6745 393.675C82.5466 390.705 87.1142 387.299 91.225 383.387C91.834 382.808 90.9205 381.938 90.3115 382.518C86.2768 386.358 81.8615 389.69 77.0655 392.588C76.2282 392.95 76.9133 394.11 77.6745 393.675V393.675Z" fill="#1AAA62"/>
<path d="M76.152 399.398C82.6988 396.935 88.5605 393.385 93.8132 388.893C94.4223 388.314 93.5087 387.444 92.8997 388.024C87.8754 392.371 82.166 395.776 75.8475 398.239C75.0101 398.529 75.3146 399.688 76.152 399.398V399.398Z" fill="#1AAA62"/>
<path d="M72.8786 408.455C72.8786 408.527 72.8786 408.527 72.8025 408.6C72.7263 408.817 72.8786 409.179 73.107 409.324C74.7817 410.121 77.2939 407.803 78.6642 407.006C82.0137 405.122 85.211 403.093 88.4083 400.992C89.0934 400.558 88.4083 399.398 87.7232 399.906C85.4394 401.427 83.1556 402.876 80.7957 404.253C78.9687 405.339 74.7817 406.788 74.0966 408.744C74.4772 408.02 73.1831 407.658 72.8786 408.455V408.455Z" fill="#1AAA62"/>
<path d="M62.5254 408.092C63.5912 409.469 64.7331 410.701 66.2556 411.57C67.0169 412.005 67.6259 410.918 66.9408 410.483C65.5705 409.686 64.5808 408.672 63.6673 407.44C63.2106 406.788 62.0687 407.44 62.5254 408.092V408.092Z" fill="#1AAA62"/>
<path d="M53.238 320.356C52.2484 322.747 51.3349 325.138 50.3452 327.529C50.0407 328.326 51.3349 328.616 51.6394 327.891C52.629 325.5 53.5425 323.109 54.5322 320.719C54.8367 319.922 53.5425 319.632 53.238 320.356V320.356Z" fill="#126B3C"/>
<path d="M56.4354 324.196C55.2935 328.471 53.6187 332.455 51.2588 336.15C50.802 336.875 51.9439 337.454 52.4007 336.802C54.8367 332.963 56.5876 328.833 57.7295 324.558C57.8818 323.761 56.6637 323.472 56.4354 324.196V324.196Z" fill="#126B3C"/>
<path d="M59.4804 331.369C58.2624 335.861 56.6638 340.207 54.7606 344.482C54.4561 345.206 55.598 345.859 55.9025 345.134C57.8818 340.787 59.4804 336.295 60.7746 331.658C61.003 330.934 59.7088 330.572 59.4804 331.369V331.369Z" fill="#126B3C"/>
<path d="M58.4907 348.032C57.425 351.002 55.8263 353.755 53.847 356.219C53.3142 356.871 54.2277 357.74 54.7605 357.088C56.9682 354.48 58.643 351.582 59.7849 348.394C60.0894 347.597 58.7952 347.235 58.4907 348.032V348.032Z" fill="#126B3C"/>
<path d="M59.4043 356.726C59.0236 359.624 57.7295 362.304 55.598 364.478C54.989 365.058 55.9786 365.999 56.5115 365.347C58.8714 362.884 60.2417 359.986 60.6984 356.653C60.8507 355.929 59.4804 355.929 59.4043 356.726V356.726Z" fill="#126B3C"/>
<path d="M61.3835 363.174C60.6984 365.565 59.5565 367.738 57.9579 369.694C57.425 370.346 58.3385 371.216 58.8714 370.564C60.6223 368.39 61.9164 366.072 62.6777 363.464C62.9061 362.739 61.6119 362.377 61.3835 363.174V363.174Z" fill="#126B3C"/>
<path d="M48.8227 314.705C48.5182 317.821 48.2137 320.936 47.9092 324.124C47.8331 324.921 49.1273 324.921 49.2795 324.124C49.584 321.008 49.8885 317.893 50.193 314.705C50.193 313.908 48.8989 313.908 48.8227 314.705V314.705Z" fill="#126B3C"/>
<path d="M42.9611 319.125C42.9611 322.53 43.5701 325.79 44.7881 328.978C45.0926 329.702 46.3867 329.412 46.0822 328.616C44.8642 325.573 44.2552 322.385 44.3313 319.125C44.3313 318.328 42.9611 318.328 42.9611 319.125V319.125Z" fill="#126B3C"/>
<path d="M40.525 328.761C42.352 333.615 44.5597 338.324 47.0718 342.888C47.4525 343.613 48.5943 342.961 48.2137 342.236C45.7777 337.744 43.6462 333.18 41.8191 328.471C41.5146 327.674 40.2205 328.036 40.525 328.761V328.761Z" fill="#126B3C"/>
<path d="M40.9818 342.453C42.961 345.134 45.3209 347.525 47.9092 349.553C48.5944 350.061 49.5079 349.191 48.8227 348.684C46.3106 346.655 44.0268 344.337 42.0475 341.801C41.6669 341.149 40.525 341.801 40.9818 342.453V342.453Z" fill="#126B3C"/>
<path d="M46.0061 353.466C46.8434 355.132 48.2137 356.436 49.8124 357.378C50.5736 357.813 51.1826 356.726 50.4975 356.291C49.0511 355.422 47.9092 354.263 47.1479 352.814C46.7673 352.089 45.6254 352.669 46.0061 353.466V353.466Z" fill="#126B3C"/>
<path d="M44.2552 358.61C46.4628 361.073 48.8227 363.319 51.3349 365.42C52.02 365.927 52.9336 365.058 52.2484 364.55C49.6601 362.449 47.3002 360.203 45.1687 357.74C44.7119 357.088 43.7223 357.958 44.2552 358.61V358.61Z" fill="#126B3C"/>
<path d="M70.9754 413.236H44.0268H22.2547L31.6943 475.325H44.0268H70.9754H83.3078L92.7474 413.236H70.9754Z" fill="#FF8249" stroke="#0A1F44" stroke-width="2" stroke-linecap="round" stroke-linejoin="round"/>
<path d="M70.9754 413.236H67.6258H49.9646L55.2934 475.325H67.6258H70.9754H83.3078L92.7474 413.236H70.9754Z" fill="white" stroke="#0A1F44" stroke-width="2" stroke-linecap="round" stroke-linejoin="round"/>
<path d="M91.7579 347.742C90.5399 349.119 89.2457 350.35 87.7993 351.437C87.1142 351.944 88.1038 352.886 88.7128 352.307C90.1592 351.147 91.4534 349.916 92.6714 348.612C93.2043 348.032 92.2908 347.09 91.7579 347.742V347.742Z" fill="#1AAA62"/>
<path d="M676.482 338.034C676.482 338.034 675.721 350.35 671.382 375.78C666.966 401.21 665.748 419.757 665.748 419.757L670.164 420.409C670.164 420.409 672.752 386.43 675.34 374.331C679.375 355.784 676.482 338.034 676.482 338.034Z" fill="#0AEA7F" stroke="#0A1F44" stroke-width="2" stroke-linecap="round" stroke-linejoin="round"/>
<path d="M686.987 410.628H658.745H647.554C643.215 410.628 639.942 414.323 640.627 418.308L649.762 472.065C650.066 473.949 651.741 475.325 653.796 475.325H658.745H686.987H691.936C693.915 475.325 695.59 473.949 695.97 472.065L705.105 418.308C705.791 414.251 702.517 410.628 698.178 410.628H686.987Z" fill="#FF8249" stroke="#0A1F44" stroke-width="2" stroke-linecap="round" stroke-linejoin="round"/>
<path d="M675.416 410.628H658.821H647.63C643.291 410.628 640.018 414.323 640.703 418.308L649.838 472.065C650.142 473.949 651.817 475.325 653.873 475.325H658.821H675.416H680.364C682.344 475.325 684.019 473.949 684.399 472.065L693.534 418.308C694.219 414.251 690.946 410.628 686.607 410.628H675.416Z" fill="white" stroke="#0A1F44" stroke-width="2" stroke-linecap="round" stroke-linejoin="round"/>
<path d="M684.019 365.42C684.019 365.42 696.427 360.348 708.227 360.348C717.742 360.348 732.739 366.579 725.583 369.332C718.428 372.085 708.836 368.535 708.531 372.447C708.227 376.36 728.4 369.694 731.217 374.403C734.033 379.113 743.625 382.228 737.764 386.937C731.902 391.646 716.068 381.069 713.86 385.778C711.652 390.487 739.286 390.487 738.068 397.152C736.85 403.818 739.591 409.252 737.459 413.598C735.251 417.873 723.147 412.802 716.677 412.802C710.13 412.802 703.659 409.686 707.389 404.18C711.119 398.674 713.251 392.081 707.085 394.399C700.842 396.718 702.137 406.136 691.86 399.109C681.583 392.081 694.6 385.778 693.687 381.503C692.621 375.997 686.531 384.619 681.354 385.053C672.143 385.778 669.022 384.257 672.143 376.867C675.264 369.332 677.548 369.767 684.019 365.42Z" fill="#0FB763" stroke="#0A1F44" stroke-width="2" stroke-linecap="round" stroke-linejoin="round"/>
<path fill-rule="evenodd" clip-rule="evenodd" d="M675.797 378.026C675.119 376.541 674.568 375.252 674.08 374.111C671.664 368.462 670.799 366.439 663.769 362.16C663.769 362.16 647.706 356.074 632.481 356.074C620.149 356.074 600.737 363.536 610.024 366.796C614.278 368.302 619.231 368.216 623.367 368.144C628.186 368.06 631.896 367.996 632.101 370.491C632.279 372.661 626.656 372.086 620.256 371.432C612.978 370.688 604.696 369.841 602.792 372.81C601.596 374.675 599.404 376.338 597.3 377.933C593.112 381.11 589.275 384.021 594.342 387.734C598.424 390.726 603.513 388.238 607.79 386.147C611.489 384.34 614.579 382.829 615.886 385.416C617.202 388.023 612.134 389.617 606.525 391.382C600.131 393.394 593.034 395.627 593.885 399.833C594.621 403.467 594.26 406.81 593.931 409.861C593.545 413.44 593.202 416.618 594.723 419.395C596.558 422.747 603.858 421.33 611.038 419.936L611.038 419.936C614.875 419.191 618.678 418.453 621.595 418.453C629.969 418.453 638.495 414.758 633.623 408.237C628.751 401.717 626.01 393.82 634.004 396.573C636.819 397.559 638.448 399.558 639.938 401.388C642.72 404.802 645.019 407.624 653.644 402.152C666.89 393.747 656.841 384.474 651.208 381.214C645.575 377.954 664.454 379.837 665.291 388.169C666.129 396.501 679.832 386.937 675.797 378.026ZM622.204 384.546C619.235 386.43 617.484 382.083 621.747 380.344C625.173 378.968 625.173 382.735 622.204 384.546ZM647.783 376.722C644.129 376.577 645.27 371.94 649.99 372.955C653.797 373.751 651.437 376.867 647.783 376.722Z" fill="#0FB763"/>
<path d="M674.08 374.111L674.999 373.718L674.999 373.718L674.08 374.111ZM675.797 378.026L676.708 377.614L676.707 377.611L675.797 378.026ZM663.769 362.16L664.289 361.305C664.236 361.273 664.181 361.246 664.123 361.224L663.769 362.16ZM610.024 366.796L610.358 365.854L610.355 365.853L610.024 366.796ZM623.367 368.144L623.349 367.144L623.349 367.144L623.367 368.144ZM632.101 370.491L633.097 370.409L633.097 370.409L632.101 370.491ZM620.256 371.432L620.357 370.437L620.357 370.437L620.256 371.432ZM602.792 372.81L601.95 372.27L601.95 372.27L602.792 372.81ZM597.3 377.933L596.696 377.137L596.696 377.137L597.3 377.933ZM594.342 387.734L593.751 388.541L594.342 387.734ZM607.79 386.147L608.229 387.046L608.229 387.046L607.79 386.147ZM615.886 385.416L616.778 384.965L616.778 384.965L615.886 385.416ZM606.525 391.382L606.825 392.336L606.825 392.336L606.525 391.382ZM593.885 399.833L592.905 400.032L592.905 400.032L593.885 399.833ZM593.931 409.861L592.937 409.754L592.937 409.754L593.931 409.861ZM594.723 419.395L595.6 418.914L595.6 418.914L594.723 419.395ZM611.038 419.936L610.906 418.945C610.886 418.947 610.867 418.95 610.847 418.954L611.038 419.936ZM611.038 419.936L611.17 420.927C611.19 420.925 611.209 420.921 611.228 420.918L611.038 419.936ZM633.623 408.237L634.424 407.639L634.424 407.639L633.623 408.237ZM634.004 396.573L634.334 395.629L634.329 395.628L634.004 396.573ZM639.938 401.388L640.714 400.756L640.714 400.756L639.938 401.388ZM653.644 402.152L653.108 401.307L653.108 401.307L653.644 402.152ZM622.204 384.546L621.683 383.693C621.678 383.696 621.673 383.699 621.668 383.702L622.204 384.546ZM621.747 380.344L621.375 379.416L621.37 379.418L621.747 380.344ZM647.783 376.722L647.822 375.723L647.822 375.723L647.783 376.722ZM649.99 372.955L649.78 373.932L649.785 373.933L649.99 372.955ZM673.161 374.504C673.648 375.645 674.204 376.944 674.887 378.441L676.707 377.611C676.034 376.138 675.487 374.859 674.999 373.718L673.161 374.504ZM663.249 363.014C666.731 365.133 668.586 366.636 669.874 368.246C671.17 369.867 671.94 371.651 673.161 374.504L674.999 373.718C673.804 370.923 672.934 368.87 671.436 366.997C669.93 365.114 667.837 363.466 664.289 361.305L663.249 363.014ZM632.481 357.074C639.975 357.074 647.705 358.574 653.586 360.085C656.52 360.84 658.983 361.594 660.71 362.159C661.574 362.442 662.253 362.677 662.715 362.841C662.946 362.922 663.122 362.987 663.24 363.03C663.299 363.052 663.344 363.068 663.373 363.079C663.387 363.084 663.398 363.089 663.405 363.091C663.409 363.093 663.411 363.093 663.413 363.094C663.414 363.094 663.414 363.095 663.415 363.095C663.415 363.095 663.415 363.095 663.415 363.095C663.415 363.095 663.415 363.095 663.769 362.16C664.123 361.224 664.123 361.224 664.123 361.224C664.123 361.224 664.122 361.224 664.122 361.224C664.121 361.224 664.12 361.223 664.119 361.223C664.117 361.222 664.114 361.221 664.109 361.219C664.101 361.216 664.088 361.211 664.072 361.205C664.04 361.193 663.992 361.175 663.93 361.153C663.805 361.107 663.622 361.04 663.383 360.956C662.907 360.787 662.213 360.546 661.332 360.258C659.572 359.682 657.067 358.915 654.083 358.148C648.126 356.617 640.213 355.074 632.481 355.074V357.074ZM610.355 365.853C609.256 365.467 608.806 365.088 608.656 364.856C608.596 364.764 608.587 364.701 608.59 364.645C608.593 364.577 608.62 364.453 608.734 364.266C608.974 363.873 609.493 363.371 610.349 362.805C611.186 362.25 612.269 361.683 613.544 361.13C618.667 358.905 626.468 357.074 632.481 357.074V355.074C626.162 355.074 618.091 356.974 612.747 359.295C611.404 359.878 610.209 360.499 609.244 361.137C608.299 361.764 607.493 362.46 607.027 363.225C606.787 363.617 606.616 364.063 606.592 364.547C606.568 365.045 606.703 365.519 606.977 365.943C607.495 366.744 608.47 367.311 609.693 367.74L610.355 365.853ZM623.349 367.144C619.176 367.217 614.411 367.288 610.358 365.854L609.69 367.739C614.145 369.316 619.286 369.215 623.384 369.144L623.349 367.144ZM633.097 370.409C633.023 369.5 632.608 368.777 631.932 368.264C631.3 367.783 630.488 367.522 629.644 367.367C627.968 367.059 625.717 367.103 623.349 367.144L623.384 369.144C625.835 369.101 627.849 369.071 629.283 369.334C629.995 369.465 630.451 369.65 630.722 369.856C630.95 370.03 631.076 370.235 631.104 370.573L633.097 370.409ZM620.154 372.427C623.329 372.751 626.406 373.068 628.666 373.02C629.781 372.997 630.819 372.885 631.597 372.574C631.994 372.415 632.398 372.175 632.693 371.798C633.007 371.396 633.139 370.915 633.097 370.409L631.104 370.573C631.106 370.601 631.102 370.604 631.106 370.591C631.108 370.585 631.11 370.579 631.113 370.573C631.116 370.568 631.118 370.565 631.118 370.565C631.114 370.569 631.058 370.635 630.853 370.717C630.427 370.888 629.693 370.998 628.624 371.021C626.517 371.065 623.583 370.767 620.357 370.437L620.154 372.427ZM603.634 373.35C603.918 372.906 604.516 372.498 605.572 372.2C606.612 371.907 607.957 371.761 609.529 371.729C612.674 371.664 616.497 372.053 620.154 372.427L620.357 370.437C616.737 370.067 612.78 369.661 609.488 369.729C607.842 369.763 606.305 369.916 605.029 370.275C603.769 370.63 602.618 371.229 601.95 372.27L603.634 373.35ZM597.904 378.73C599.961 377.17 602.321 375.396 603.634 373.35L601.95 372.27C600.87 373.954 598.846 375.506 596.696 377.137L597.904 378.73ZM594.933 386.928C593.748 386.059 593.219 385.332 593.024 384.761C592.845 384.234 592.907 383.712 593.232 383.104C593.574 382.464 594.185 381.779 595.025 381.028C595.859 380.283 596.85 379.53 597.904 378.73L596.696 377.137C595.657 377.925 594.597 378.728 593.692 379.537C592.793 380.341 591.976 381.212 591.468 382.161C590.944 383.142 590.735 384.242 591.131 385.405C591.511 386.523 592.402 387.553 593.751 388.541L594.933 386.928ZM607.351 385.249C605.189 386.306 602.957 387.391 600.778 387.87C598.633 388.341 596.666 388.197 594.933 386.928L593.751 388.541C596.1 390.262 598.719 390.37 601.208 389.823C603.663 389.284 606.115 388.079 608.229 387.046L607.351 385.249ZM616.778 384.965C616.354 384.125 615.736 383.538 614.933 383.245C614.163 382.964 613.333 382.994 612.538 383.153C610.984 383.465 609.154 384.368 607.351 385.249L608.229 387.046C610.125 386.119 611.689 385.363 612.932 385.114C613.535 384.993 613.955 385.017 614.247 385.124C614.506 385.219 614.764 385.413 614.993 385.867L616.778 384.965ZM606.825 392.336C609.595 391.464 612.366 390.597 614.267 389.6C615.209 389.107 616.07 388.516 616.588 387.77C616.859 387.381 617.048 386.932 617.088 386.427C617.129 385.921 617.012 385.429 616.778 384.965L614.993 385.867C615.088 386.055 615.101 386.182 615.095 386.269C615.088 386.358 615.053 386.474 614.946 386.629C614.709 386.97 614.2 387.377 613.338 387.829C611.632 388.723 609.064 389.535 606.225 390.428L606.825 392.336ZM594.865 399.635C594.719 398.912 594.896 398.274 595.392 397.634C595.915 396.96 596.783 396.303 597.964 395.664C600.329 394.384 603.598 393.351 606.825 392.336L606.225 390.428C603.058 391.424 599.582 392.514 597.012 393.905C595.726 394.601 594.58 395.417 593.812 396.408C593.017 397.433 592.626 398.651 592.905 400.032L594.865 399.635ZM594.925 409.968C595.253 406.93 595.636 403.441 594.865 399.635L592.905 400.032C593.606 403.494 593.267 406.69 592.937 409.754L594.925 409.968ZM595.6 418.914C594.258 416.463 594.531 413.625 594.925 409.968L592.937 409.754C592.559 413.255 592.147 416.773 593.846 419.875L595.6 418.914ZM610.847 418.954C607.232 419.656 603.697 420.34 600.839 420.446C599.412 420.499 598.228 420.403 597.324 420.132C596.435 419.864 595.895 419.453 595.6 418.914L593.846 419.875C594.468 421.012 595.529 421.681 596.749 422.047C597.955 422.409 599.388 422.501 600.913 422.444C603.959 422.331 607.663 421.61 611.228 420.918L610.847 418.954ZM610.906 418.945L610.906 418.945L611.17 420.927L611.17 420.927L610.906 418.945ZM621.595 417.453C618.56 417.453 614.649 418.216 610.847 418.954L611.228 420.918C615.101 420.166 618.796 419.453 621.595 419.453V417.453ZM632.822 408.836C633.933 410.322 634.17 411.494 633.995 412.394C633.818 413.308 633.17 414.181 632.016 414.962C629.68 416.543 625.684 417.453 621.595 417.453V419.453C625.88 419.453 630.334 418.515 633.137 416.618C634.552 415.661 635.646 414.387 635.958 412.775C636.274 411.148 635.75 409.413 634.424 407.639L632.822 408.836ZM634.329 395.628C632.292 394.926 630.585 394.762 629.388 395.45C628.066 396.211 627.832 397.69 627.996 399.047C628.164 400.438 628.772 402.07 629.611 403.728C630.458 405.402 631.575 407.167 632.822 408.836L634.424 407.639C633.235 406.047 632.182 404.38 631.395 402.825C630.6 401.255 630.109 399.863 629.982 398.808C629.85 397.72 630.126 397.334 630.386 397.184C630.771 396.962 631.719 396.844 633.678 397.518L634.329 395.628ZM640.714 400.756C639.235 398.942 637.448 396.719 634.334 395.629L633.673 397.517C636.19 398.398 637.66 400.175 639.163 402.019L640.714 400.756ZM653.108 401.307C648.845 404.012 646.411 404.483 644.819 404.126C643.215 403.767 642.155 402.525 640.714 400.756L639.163 402.019C640.504 403.665 641.984 405.541 644.382 406.078C646.79 406.618 649.819 405.763 654.18 402.996L653.108 401.307ZM650.707 382.079C653.456 383.67 657.147 386.663 658.582 390.136C659.282 391.83 659.434 393.606 658.714 395.425C657.985 397.266 656.311 399.275 653.108 401.307L654.18 402.996C657.601 400.826 659.638 398.524 660.574 396.161C661.519 393.775 661.291 391.454 660.43 389.372C658.744 385.291 654.593 382.018 651.709 380.348L650.707 382.079ZM666.286 388.069C666.037 385.59 664.453 383.684 662.53 382.298C660.602 380.908 658.217 379.951 656.082 379.378C653.978 378.814 651.96 378.582 650.763 378.765C650.463 378.811 650.113 378.897 649.815 379.082C649.486 379.287 649.111 379.703 649.165 380.322C649.208 380.815 649.515 381.174 649.738 381.386C649.99 381.626 650.321 381.856 650.707 382.079L651.709 380.348C651.391 380.164 651.21 380.026 651.119 379.94C651 379.826 651.136 379.899 651.158 380.148C651.19 380.523 650.945 380.735 650.873 380.78C650.833 380.805 650.87 380.772 651.066 380.742C651.851 380.622 653.548 380.77 655.564 381.31C657.55 381.843 659.689 382.715 661.361 383.92C663.037 385.128 664.127 386.582 664.297 388.269L666.286 388.069ZM674.886 378.438C676.642 382.317 674.576 386.479 671.74 388.788C670.32 389.944 668.915 390.455 667.955 390.357C667.51 390.312 667.168 390.141 666.906 389.838C666.632 389.519 666.377 388.973 666.286 388.069L664.297 388.269C664.415 389.447 664.772 390.425 665.391 391.144C666.024 391.877 666.858 392.256 667.753 392.347C669.471 392.521 671.396 391.646 673.003 390.339C676.218 387.721 678.987 382.647 676.708 377.614L674.886 378.438ZM621.668 383.702C621.108 384.057 620.753 384.032 620.594 383.979C620.435 383.927 620.294 383.794 620.232 383.554C620.12 383.12 620.297 382.016 622.125 381.27L621.37 379.418C618.935 380.411 617.856 382.35 618.296 384.054C618.509 384.882 619.096 385.591 619.968 385.879C620.838 386.166 621.816 385.977 622.74 385.391L621.668 383.702ZM622.12 381.272C622.864 380.973 623.202 381.048 623.285 381.084C623.298 381.089 623.363 381.098 623.375 381.307C623.405 381.829 622.955 382.917 621.683 383.693L622.725 385.4C624.422 384.365 625.456 382.663 625.372 381.193C625.327 380.406 624.936 379.618 624.078 379.247C623.291 378.908 622.344 379.027 621.375 379.416L622.12 381.272ZM647.822 375.723C647.115 375.695 646.822 375.461 646.719 375.325C646.621 375.196 646.581 375.011 646.675 374.774C646.853 374.327 647.719 373.489 649.78 373.932L650.2 371.977C647.542 371.405 645.477 372.379 644.817 374.033C644.493 374.847 644.557 375.784 645.125 376.534C645.689 377.276 646.623 377.677 647.743 377.721L647.822 375.723ZM649.785 373.933C650.633 374.111 650.879 374.371 650.922 374.438C650.934 374.457 650.931 374.457 650.931 374.459C650.93 374.473 650.92 374.534 650.851 374.638C650.532 375.119 649.422 375.786 647.822 375.723L647.743 377.721C649.798 377.803 651.694 376.984 652.517 375.744C652.959 375.078 653.132 374.182 652.607 373.361C652.137 372.625 651.25 372.197 650.195 371.976L649.785 373.933Z" fill="#0A1F44"/>
<path d="M669.326 378.098C669.326 378.098 678.842 378.606 685.389 382.735C690.642 386.068 695.666 396.066 690.261 395.631C684.856 395.196 681.43 389.183 679.147 392.009C676.939 394.834 691.555 396.863 690.642 401.427C689.728 405.991 693.382 411.715 687.597 413.164C681.887 414.685 680.441 402.296 676.71 405.05C673.056 407.875 686.531 416.352 682.344 420.916C678.157 425.553 676.787 430.624 673.285 433.16C669.783 435.696 665.824 427.581 662.17 425.335C658.516 423.089 657.222 419.177 661.561 415.555C665.824 412.005 669.326 408.962 664.606 408.527C659.963 408.165 657.603 415.192 655.624 406.281C653.72 397.37 664.15 397.08 665.977 393.603C668.26 389.038 660.343 393.458 657.298 391.936C651.893 389.256 650.904 387.01 656.537 382.518C662.399 377.953 663.465 379.113 669.326 378.098Z" fill="#0AEA7F" stroke="#0A1F44" stroke-width="2" stroke-linecap="round" stroke-linejoin="round"/>
<path d="M685.313 367.955C695.285 368.608 703.354 378.461 709.368 385.126C712.946 389.111 716.448 393.313 720.102 397.297C724.061 401.717 727.943 406.354 732.282 410.483C732.587 410.193 732.891 409.904 733.196 409.614C723.223 401.572 714.241 392.95 706.171 383.17C699.853 375.563 692.697 368.97 682.115 367.666C681.278 367.593 681.278 368.825 682.115 368.97C693.306 370.274 700.309 378.026 706.78 385.995C714.241 395.124 722.995 403.021 732.206 410.483C732.815 410.99 733.805 410.193 733.12 409.614C728.552 405.339 724.441 400.413 720.254 395.776C716.22 391.284 712.337 386.575 708.15 382.083C702.289 375.78 694.676 367.376 685.16 366.796C684.475 366.651 684.475 367.955 685.313 367.955V367.955Z" fill="#086D38"/>
<path d="M705.258 363.971C709.14 363.971 713.099 364.405 716.829 365.565C717.742 365.854 719.113 366.362 717.666 367.303C717.286 367.593 715.382 367.376 714.85 367.376C712.794 367.448 710.663 367.521 708.607 367.593C707.77 367.593 707.77 368.897 708.607 368.897C711.728 368.752 715.535 369.187 718.58 368.463C719.722 368.173 720.787 367.448 720.331 366.217C719.874 364.695 716.981 364.261 715.687 363.971C712.261 363.101 708.836 362.739 705.334 362.739C704.344 362.667 704.344 363.971 705.258 363.971V363.971Z" fill="#086D38"/>
<path d="M720.559 377.012C722.234 376.794 724.518 376.142 726.268 376.36C729.009 376.649 728.324 378.388 729.39 379.837C730.227 380.996 731.521 381.141 732.587 381.938C733.805 382.373 733.805 383.46 732.587 385.126C731.826 385.126 731.064 384.981 730.379 384.836C729.237 384.619 728.172 384.329 727.106 383.967C726.268 383.677 725.964 384.909 726.725 385.198C728.781 385.85 733.12 387.444 735.099 385.778C736.469 384.691 735.86 382.808 734.718 381.721C733.272 380.417 731.75 380.417 730.684 378.606C730.227 377.736 729.922 376.36 729.085 375.708C727.03 374.114 722.767 375.49 720.559 375.708C719.722 375.852 719.722 377.157 720.559 377.012V377.012Z" fill="#086D38"/>
<path d="M710.663 403.818C709.445 405.919 709.369 407.947 712.033 408.817C713.936 409.469 716.144 409.396 718.123 409.831C721.016 410.483 723.68 411.497 726.345 412.802C727.106 413.164 727.791 412.077 727.03 411.715C724.67 410.556 722.158 409.614 719.57 408.889C717.59 408.382 709.521 408.382 711.805 404.47C712.261 403.745 711.12 403.093 710.663 403.818V403.818Z" fill="#086D38"/>
<path d="M703.735 391.864C702.213 392.153 700.766 392.733 699.548 393.675C698.254 394.617 696.122 398.167 694.067 396.573C693.382 396.066 692.468 396.935 693.154 397.442C694.448 398.457 696.046 398.384 697.417 397.442C698.254 396.863 698.863 396.066 699.548 395.341C700.842 394.11 702.289 393.385 704.116 393.023C704.877 392.878 704.572 391.646 703.735 391.864V391.864Z" fill="#086D38"/>
<path d="M728.933 395.631C733.12 395.486 733.501 402.876 734.186 405.702C734.338 406.498 735.632 406.136 735.48 405.339C734.642 401.862 734.338 394.11 728.933 394.327C728.096 394.399 728.096 395.631 728.933 395.631V395.631Z" fill="#086D38"/>
<path d="M658.592 401.717C657.298 403.093 657.298 405.484 658.973 406.643C660.572 407.803 662.855 407.295 663.921 405.701C664.378 405.049 663.236 404.397 662.779 405.049C662.17 405.919 660.724 406.281 659.81 405.629C658.821 404.977 658.745 403.456 659.582 402.586C660.115 402.007 659.201 401.137 658.592 401.717V401.717Z" fill="#15AD61"/>
<path d="M686.607 402.804C687.292 403.963 688.053 405.267 687.749 406.571C687.596 407.15 687.292 407.658 686.759 407.947C686.074 408.237 685.16 407.875 685.084 407.15C685.008 406.354 683.714 406.354 683.714 407.15C683.866 409.107 686.378 410.048 687.901 408.744C690.033 406.933 688.891 404.18 687.749 402.151C687.368 401.427 686.15 402.079 686.607 402.804V402.804Z" fill="#15AD61"/>
<path d="M680.136 389.328C681.963 388.314 683.638 390.777 685.313 391.212C686.15 391.429 687.368 391.284 687.901 390.487C688.51 389.4 687.368 388.459 686.607 387.807C685.389 386.72 683.942 385.85 682.42 385.126C681.659 384.764 680.973 385.85 681.735 386.213C683.029 386.792 684.247 387.517 685.313 388.386C685.541 388.531 686.302 389.111 686.378 389.328C686.835 390.777 685.008 389.618 684.628 389.4C683.029 388.386 681.43 387.082 679.451 388.169C678.766 388.676 679.375 389.763 680.136 389.328V389.328Z" fill="#15AD61"/>
<path d="M658.136 383.387C656.765 384.909 655.243 387.372 657.298 388.966C659.278 390.56 663.008 390.487 665.444 390.27C666.281 390.197 666.281 388.893 665.444 388.966C663.693 389.183 661.942 389.111 660.267 388.748C659.887 388.676 659.582 388.603 659.201 388.459C658.364 388.169 658.06 388.024 657.831 387.155C657.527 385.923 658.288 385.126 659.049 384.184C659.582 383.677 658.669 382.735 658.136 383.387V383.387Z" fill="#15AD61"/>
<path d="M663.008 418.38C661.79 419.684 662.018 421.351 663.236 422.655C664.302 423.814 665.9 424.176 667.042 425.19C668.032 426.205 668.184 427.726 669.326 428.596C670.62 429.682 672.98 429.61 674.35 428.668C676.33 427.364 675.797 424.249 677.7 423.017C678.385 422.582 677.7 421.423 677.015 421.93C674.807 423.379 675.416 427.291 672.6 428.016C669.707 428.74 669.478 425.698 668.032 424.249C666.89 423.162 661.942 421.423 664.073 419.177C664.53 418.67 663.617 417.801 663.008 418.38V418.38Z" fill="#15AD61"/>
<path d="M671.915 379.91C669.859 394.907 671.077 409.759 671.229 424.756C671.229 425.553 672.447 425.553 672.6 424.756C674.122 410.338 674.731 395.776 674.807 381.286C674.807 380.489 673.513 380.489 673.437 381.286C673.437 395.776 672.752 410.338 671.229 424.756C671.686 424.756 672.143 424.756 672.6 424.756C672.524 409.759 671.229 394.834 673.285 379.91C673.361 379.113 672.067 379.113 671.915 379.91V379.91Z" fill="#15AD61"/>
<path d="M660.114 362.087C647.02 362.522 636.363 373.606 627.837 381.793C616.57 392.588 606.293 404.47 598.147 417.656C597.691 418.38 598.833 419.032 599.289 418.308C607.054 405.919 616.57 394.617 627.151 384.329C632.1 379.547 637.124 374.548 642.757 370.419C647.477 366.941 654.024 363.608 660.114 363.391C660.951 363.319 660.951 362.015 660.114 362.087V362.087Z" fill="#086D38"/>
<path d="M658.136 360.638C644.661 361.942 634.765 372.737 626.163 381.576C615.429 392.661 605.685 404.325 598.072 417.583C597.692 418.308 598.833 418.96 599.214 418.235C606.446 405.701 615.505 394.544 625.554 384.039C630.274 379.113 634.917 373.534 640.551 369.549C645.499 366.072 651.817 362.522 657.983 361.942C659.049 361.87 659.049 360.566 658.136 360.638V360.638Z" fill="#086D38"/>
<path d="M618.246 360.058C616.419 360.348 610.252 362.884 612.612 365.347C613.907 366.724 617.408 366.217 619.083 366.289C622.737 366.434 626.467 366.289 630.121 365.999C630.959 365.927 630.959 364.695 630.121 364.695C626.62 364.985 623.194 365.13 619.692 364.985C618.17 364.913 615.734 365.275 614.744 363.971C613.983 362.884 614.516 362.667 615.734 362.015C616.571 361.58 617.561 361.29 618.55 361.145C619.464 361.145 619.083 359.914 618.246 360.058V360.058Z" fill="#086D38"/>
<path d="M656.156 377.301C657.831 377.084 659.43 377.591 660.648 378.75C661.257 379.33 662.17 378.388 661.561 377.881C659.963 376.432 657.907 375.852 655.776 376.142C654.938 376.142 655.319 377.374 656.156 377.301V377.301Z" fill="#086D38"/>
<path d="M671.305 374.911C670.468 372.81 669.25 370.926 667.575 369.259C666.966 368.68 666.053 369.549 666.662 370.129C668.184 371.578 669.326 373.244 670.011 375.2C670.316 375.997 671.61 375.707 671.305 374.911V374.911Z" fill="#086D38"/>
<path d="M632.024 393.53C635.831 392.806 639.028 394.762 641.388 397.442C642.606 398.819 643.672 400.485 645.575 401.137C649.762 402.586 652.883 398.819 654.786 395.921C655.243 395.196 654.101 394.617 653.644 395.269C651.817 398.167 648.62 401.934 644.738 399.109C643.063 397.877 641.997 395.921 640.322 394.617C637.81 392.661 634.917 391.719 631.72 392.371C630.806 392.443 631.187 393.675 632.024 393.53V393.53Z" fill="#086D38"/>
<path d="M624.183 400.775C624.564 402.659 625.249 404.252 626.391 405.846C627 406.716 627.685 407.44 628.294 408.31C628.827 408.962 629.208 409.614 629.436 410.411C630.121 412.294 629.284 413.309 626.848 413.526C626.01 413.236 625.706 414.468 626.467 414.758C628.903 415.699 630.959 413.671 630.883 411.353C630.806 409.614 629.817 408.31 628.827 407.006C627.228 404.977 625.934 403.021 625.401 400.485C625.325 399.616 624.031 399.978 624.183 400.775V400.775Z" fill="#086D38"/>
<path d="M589.089 329.412L656.842 489.815H643.291L560.542 329.412H589.089Z" fill="#0A1F44" stroke="#0A1F44" stroke-width="2" stroke-linecap="round" stroke-linejoin="round"/>
<path d="M411.487 329.412L343.735 489.815H357.286L440.035 329.412H411.487Z" fill="#0A1F44" stroke="#0A1F44" stroke-width="2" stroke-linecap="round" stroke-linejoin="round"/>
<rect x="116.575" y="455.402" width="160.093" height="11.8817" fill="#0A1F44" stroke="#0A1F44" stroke-width="2" stroke-linecap="round" stroke-linejoin="round"/>
<path d="M268.294 422.51H248.425L281.388 486.41C282.454 488.511 284.737 489.815 287.174 489.815V489.815C291.741 489.815 294.862 485.396 293.187 481.411L268.294 422.51Z" fill="#0A1F44" stroke="#0A1F44" stroke-width="2" stroke-linecap="round" stroke-linejoin="round"/>
<path d="M159.662 345.134L102.187 481.339C100.512 485.396 103.634 489.743 108.201 489.743V489.743C110.637 489.743 112.921 488.439 113.987 486.338L186.839 345.134H159.662Z" fill="#0A1F44" stroke="#0A1F44" stroke-width="2" stroke-linecap="round" stroke-linejoin="round"/>
<path d="M142.838 401.717V420.916C142.838 421.785 143.6 422.437 144.437 422.437H279.789V401.644H142.838V401.717Z" fill="#FF4F00" stroke="#0A1F44" stroke-width="2" stroke-linecap="round" stroke-linejoin="round"/>
<path d="M151.974 245.661H102.416L149.081 401.717H208.764L164.915 254.935C163.316 249.428 157.988 245.661 151.974 245.661Z" fill="#FF4F00" stroke="#0A1F44" stroke-width="2" stroke-linecap="round" stroke-linejoin="round"/>
<path d="M142.838 401.717V420.916C142.838 421.785 143.6 422.437 144.437 422.437H227.947V401.644H142.838V401.717Z" fill="#FF4F00" stroke="#0A1F44" stroke-width="2" stroke-linecap="round" stroke-linejoin="round"/>
<path d="M109.571 245.661H102.416L149.081 401.717H166.361L122.513 254.935C120.914 249.428 115.585 245.661 109.571 245.661Z" fill="#FF4F00" stroke="#0A1F44" stroke-width="2" stroke-linecap="round" stroke-linejoin="round"/>
<path d="M156.922 369.984L145.96 391.212L132.105 344.844H149.385L156.922 369.984Z" fill="#0A1F44" stroke="#0A1F44" stroke-width="2" stroke-linecap="round" stroke-linejoin="round"/>
<path d="M345.562 290.362L298.592 286.957V309.489H358.275V303.403C358.275 296.593 352.718 290.869 345.562 290.362Z" fill="#FFC392" stroke="#0A1F44" stroke-width="2" stroke-linecap="round" stroke-linejoin="round"/>
<path d="M336.198 288.479H318.613H311.99H302.322C300.267 288.479 298.592 290.073 298.592 292.029V306.011C298.592 307.967 300.267 309.561 302.322 309.561H304.302C311.381 309.561 317.548 305.649 320.44 299.998H336.122C339.472 299.998 342.136 297.39 342.136 294.275C342.212 291.014 339.472 288.479 336.198 288.479Z" fill="#FFC392" stroke="#0A1F44" stroke-width="2" stroke-linecap="round" stroke-linejoin="round"/>
<path d="M207.165 309.561V268.7L311.762 283.045V309.561H207.165Z" fill="white" stroke="#0A1F44" stroke-width="2" stroke-linecap="round" stroke-linejoin="round"/>
<path d="M223.532 270.946L207.165 268.7V309.561H236.854L223.532 270.946Z" fill="#0A1F44" stroke="#0A1F44" stroke-width="2" stroke-linecap="round" stroke-linejoin="round"/>
<path d="M404.407 476.412L466.755 426.567C470.789 423.379 476.651 423.379 480.686 426.639V426.639C485.253 430.334 485.786 436.782 481.904 441.129L441.176 486.845C438.512 489.815 434.097 490.685 430.443 488.946L404.407 476.412Z" fill="#0AEA7F" stroke="#0A1F44" stroke-width="2" stroke-linecap="round" stroke-linejoin="round"/>
<path d="M441.329 446.853L440.339 448.736L423.211 481.484L418.871 489.815L255.277 412.367L232.819 401.717L222.771 397.008L245.228 354.045L441.329 446.853Z" fill="#FF8249" stroke="#0A1F44" stroke-width="2" stroke-linecap="round" stroke-linejoin="round"/>
<path d="M285.651 401.717V412.367H255.277L232.819 401.717H285.651Z" fill="#0A1F44" stroke="#0A1F44" stroke-width="2" stroke-linecap="round" stroke-linejoin="round"/>
<path d="M237.539 353.755L220.106 295.434C226.729 292.318 231.145 285.581 230.536 277.973C229.927 270.366 224.065 263.918 216.224 262.107C216.148 262.107 216.148 262.107 216.072 262.035C212.341 261.238 209.068 259.209 206.86 256.239C201.988 249.718 193.995 245.589 185.241 245.589H163.773C141.925 245.589 126.167 265.512 132.105 285.508L152.506 353.755L157.455 370.419C163.012 388.966 180.749 401.717 200.999 401.717H251.927L237.539 353.755Z" fill="white" stroke="#0A1F44" stroke-width="2" stroke-linecap="round" stroke-linejoin="round"/>
<path d="M336.046 388.821V489.743H294.482C289.609 489.743 285.651 485.975 285.651 481.339V401.644H200.999C180.749 401.644 163.012 388.893 157.455 370.346L157.15 369.332C154.79 361.508 182.576 353.683 220.335 353.683H299.201C319.527 353.755 336.046 369.477 336.046 388.821Z" fill="#FF8249" stroke="#0A1F44" stroke-width="2" stroke-linecap="round" stroke-linejoin="round"/>
<path d="M366.345 479.455C366.345 482.28 365.126 484.889 363.147 486.772C361.168 488.656 358.504 489.815 355.535 489.815H294.482C289.609 489.815 285.651 486.048 285.651 481.411V457.43L336.046 465.762L357.438 469.312C362.614 470.181 366.345 474.456 366.345 479.455Z" fill="#0AEA7F" stroke="#0A1F44" stroke-width="2" stroke-linecap="round" stroke-linejoin="round"/>
<path fill-rule="evenodd" clip-rule="evenodd" d="M222.542 305.504H238.3C242.944 305.504 246.75 309.127 246.75 313.546V327.239C246.75 331.658 242.944 335.281 238.3 335.281H222.542C217.899 335.281 214.092 331.658 214.092 327.239V313.546C214.092 309.127 217.899 305.504 222.542 305.504ZM235.179 330.064C238.529 330.064 241.269 327.456 241.269 324.269V316.516C241.269 313.329 238.529 310.721 235.179 310.721H225.664C222.314 310.721 219.574 313.329 219.574 316.516V324.269C219.574 327.456 222.314 330.064 225.664 330.064H235.179Z" fill="#FF8249"/>
<path d="M238.3 304.504H222.542V306.504H238.3V304.504ZM247.75 313.546C247.75 308.528 243.449 304.504 238.3 304.504V306.504C242.439 306.504 245.75 309.725 245.75 313.546H247.75ZM247.75 327.239V313.546H245.75V327.239H247.75ZM238.3 336.281C243.449 336.281 247.75 332.257 247.75 327.239H245.75C245.75 331.06 242.439 334.281 238.3 334.281V336.281ZM222.542 336.281H238.3V334.281H222.542V336.281ZM213.092 327.239C213.092 332.257 217.394 336.281 222.542 336.281V334.281C218.404 334.281 215.092 331.06 215.092 327.239H213.092ZM213.092 313.546V327.239H215.092V313.546H213.092ZM222.542 304.504C217.394 304.504 213.092 308.528 213.092 313.546H215.092C215.092 309.725 218.404 306.504 222.542 306.504V304.504ZM240.269 324.269C240.269 326.858 238.024 329.064 235.179 329.064V331.064C239.034 331.064 242.269 328.055 242.269 324.269H240.269ZM240.269 316.516V324.269H242.269V316.516H240.269ZM235.179 311.721C238.024 311.721 240.269 313.927 240.269 316.516H242.269C242.269 312.73 239.034 309.721 235.179 309.721V311.721ZM225.664 311.721H235.179V309.721H225.664V311.721ZM220.574 316.516C220.574 313.927 222.819 311.721 225.664 311.721V309.721C221.809 309.721 218.574 312.73 218.574 316.516H220.574ZM220.574 324.269V316.516H218.574V324.269H220.574ZM225.664 329.064C222.819 329.064 220.574 326.858 220.574 324.269H218.574C218.574 328.055 221.809 331.064 225.664 331.064V329.064ZM235.179 329.064H225.664V331.064H235.179V329.064Z" fill="#0A1F44"/>
<path d="M204.196 303.91H194.985C189.123 303.91 184.327 308.475 184.327 314.053V327.311C184.327 332.89 189.123 337.454 194.985 337.454H203.054C208.916 337.454 213.712 332.89 213.712 327.311V312.966C213.712 308.04 209.449 303.91 204.196 303.91Z" fill="#FFC392" stroke="#0A1F44" stroke-width="2" stroke-linecap="round" stroke-linejoin="round"/>
<path d="M184.327 311.59V345.134H211.123C216.148 345.134 220.259 341.222 220.259 336.44V322.747H222.847C225.055 322.747 226.882 321.008 226.882 318.907V315.43C226.882 313.329 225.055 311.59 222.847 311.59H211.123H198.639" fill="#FFC392"/>
<path d="M184.327 311.59V345.134H211.123C216.148 345.134 220.259 341.222 220.259 336.44V322.747H222.847C225.055 322.747 226.882 321.008 226.882 318.907V315.43C226.882 313.329 225.055 311.59 222.847 311.59H211.123H198.639" stroke="#0A1F44" stroke-width="2" stroke-linecap="round" stroke-linejoin="round"/>
<path d="M163.012 276.597L149.918 307.895C149.157 309.779 150.375 311.88 152.43 312.242L163.012 314.053L172.375 315.647L184.403 317.748L189.58 318.618V345.134H131.343C114.519 345.134 101.959 330.499 105.308 314.85L114.291 272.902C117.717 257.036 132.333 245.661 149.385 245.661H163.012" fill="white"/>
<path d="M163.012 276.597L149.918 307.895C149.157 309.779 150.375 311.88 152.43 312.242L163.012 314.053L172.375 315.647L184.403 317.748L189.58 318.618V345.134H131.343C114.519 345.134 101.959 330.499 105.308 314.85L114.291 272.902C117.717 257.036 132.333 245.661 149.385 245.661H163.012" stroke="#0A1F44" stroke-width="2" stroke-linecap="round" stroke-linejoin="round"/>
<path d="M261.443 343.178H247.512C239.442 343.178 232.819 336.875 232.819 329.195V303.113C232.819 300.795 234.799 298.911 237.235 298.911H271.72C274.156 298.911 276.135 300.795 276.135 303.113V329.195C276.059 336.875 269.512 343.178 261.443 343.178Z" fill="#FF8249" stroke="#0A1F44" stroke-width="2" stroke-linecap="round" stroke-linejoin="round"/>
<path d="M254.744 294.13C254.82 294.709 254.211 295.144 253.678 294.782C251.394 293.333 247.207 289.855 247.207 284.566C247.207 278.481 252.612 276.162 252.612 270.149C252.612 265.802 251.242 262.542 250.252 260.731C249.948 260.223 250.557 259.716 251.09 260.006C253.982 261.527 259.387 265.222 259.387 271.815C259.387 277.032 253.754 280.002 253.754 284.856C253.678 289.276 254.363 292.101 254.744 294.13Z" fill="#EEF5FF"/>
<path d="M163.012 276.597L162.936 314.053L152.354 312.242C150.223 311.88 149.005 309.779 149.842 307.895L163.012 276.597Z" fill="#0A1F44" stroke="#0A1F44" stroke-width="2" stroke-linecap="round" stroke-linejoin="round"/>
<rect x="326.759" y="304.707" width="90.3616" height="4.78165" fill="#FF8249" stroke="#0A1F44" stroke-width="2" stroke-linecap="round" stroke-linejoin="round"/>
<rect width="86.245" height="5.01119" transform="matrix(-0.246636 0.969108 -0.974447 -0.224618 439.782 225.94)" fill="#FF8249" stroke="#0A1F44" stroke-width="2" stroke-linecap="round" stroke-linejoin="round"/>
<path d="M189.123 248.704L190.95 248.994C197.573 250.081 203.815 245.806 204.881 239.575L207.698 223.709C208.84 217.406 204.348 211.465 197.801 210.451L195.974 210.161C189.351 209.074 183.109 213.349 182.043 219.579L179.227 235.446C178.085 241.749 182.5 247.69 189.123 248.704Z" fill="#FFC392" stroke="#0A1F44" stroke-width="2" stroke-linecap="round" stroke-linejoin="round"/>
<path d="M220.944 208.277C219.726 200.453 212.037 195.092 203.891 196.323C199.248 196.975 195.441 199.583 193.234 203.133C189.199 200.525 183.642 199.294 177.78 200.163C167.123 201.684 159.586 209.436 160.804 217.406C160.88 217.696 160.88 217.913 160.956 218.203L160.5 218.275C159.814 218.275 159.053 218.348 158.292 218.493C146.264 220.231 138.042 230.881 139.869 242.328C141.696 253.775 152.887 261.6 164.915 259.861C176.943 258.122 185.164 247.472 183.337 236.025C183.109 234.576 182.728 233.2 182.196 231.896L181.739 229.215C181.891 229.215 182.119 229.143 182.272 229.143C188.438 228.273 193.538 225.303 196.507 221.463C199.705 223.926 203.891 225.23 208.231 224.578C216.528 223.347 222.162 216.102 220.944 208.277Z" fill="#0A1F44" stroke="#0A1F44" stroke-width="2" stroke-linecap="round" stroke-linejoin="round"/>
<path d="M185.241 236.243C183.033 238.199 179.455 237.909 177.247 235.591C175.04 233.272 175.116 229.867 177.4 227.983C179.607 226.027 183.185 226.317 185.393 228.636" fill="#FFC392"/>
<path d="M185.241 236.243C183.033 238.199 179.455 237.909 177.247 235.591C175.04 233.272 175.116 229.867 177.4 227.983C179.607 226.027 183.185 226.317 185.393 228.636" stroke="#0A1F44" stroke-width="2" stroke-linecap="round" stroke-linejoin="round"/>
<path d="M149.385 245.661H152.126H163.012V245.661C163.24 245.661 163.469 245.661 163.697 245.661H169.939C171.157 242.908 171.766 239.938 171.766 236.822C171.766 224.144 160.956 213.783 147.558 213.783C134.236 213.783 123.35 224.071 123.35 236.822C123.35 242.473 125.482 247.617 128.983 251.602C134.921 247.835 141.925 245.661 149.385 245.661Z" fill="#0A1F44" stroke="#0A1F44" stroke-width="2" stroke-linecap="round" stroke-linejoin="round"/>
<path d="M199.933 231.244C199.781 232.62 200.39 233.924 201.455 234.794C202.141 235.301 203.054 234.431 202.369 233.924C201.532 233.272 201.075 232.33 201.227 231.244C201.303 230.447 200.009 230.447 199.933 231.244V231.244Z" fill="#0A1F44"/>
<path d="M198.791 239.575C196.66 239.213 194.985 238.054 193.995 236.17C193.767 235.736 193.082 235.808 192.853 236.17C190.874 238.996 192.396 243.053 195.746 244.067C196.583 244.357 196.888 243.125 196.127 242.836C193.538 242.039 192.549 238.923 194.071 236.822C193.691 236.822 193.31 236.822 192.929 236.822C193.995 238.923 196.051 240.372 198.487 240.807C199.248 240.952 199.628 239.72 198.791 239.575V239.575Z" fill="#0A1F44"/>
<path d="M162.479 256.021C165.219 261.238 165.828 266.816 164.154 272.467C163.925 273.264 165.219 273.554 165.448 272.83C167.199 266.889 166.514 260.875 163.621 255.442C163.24 254.645 162.098 255.297 162.479 256.021V256.021Z" fill="#0A1F44"/>
<path d="M212.037 292.681C204.196 290.725 196.127 291.159 188.514 293.985C187.753 294.275 188.057 295.506 188.895 295.216C196.203 292.463 204.044 291.956 211.656 293.912C212.494 294.057 212.798 292.898 212.037 292.681V292.681Z" fill="#0A1F44"/>
<path d="M143.067 311.155C139.869 312.242 137.205 314.198 135.302 316.879C134.845 317.531 135.987 318.183 136.444 317.531C138.119 315.14 140.555 313.329 143.447 312.387C144.285 312.097 143.904 310.865 143.067 311.155V311.155Z" fill="#0A1F44"/>
<path d="M143.904 314.415C142.534 316.951 141.24 319.414 139.869 321.95C139.489 322.675 140.631 323.327 141.011 322.602C142.382 320.066 143.676 317.603 145.046 315.067C145.427 314.271 144.285 313.618 143.904 314.415V314.415Z" fill="#0A1F44"/>
<path d="M186.915 363.536C195.213 369.767 205.338 372.302 215.691 373.317C228.404 374.548 241.346 374.114 254.135 374.186C261.367 374.258 268.599 374.331 275.831 374.403C282.225 374.476 290.218 373.389 296.156 375.997C307.271 380.851 305.063 397.442 305.215 406.861C305.444 422.147 305.748 437.434 305.977 452.793C305.977 453.59 307.347 453.59 307.347 452.793C307.118 438.738 306.89 424.683 306.586 410.628C306.509 404.542 306.662 398.312 306.129 392.226C305.748 387.951 304.987 383.46 302.475 379.765C299.886 375.997 295.928 374.114 291.284 373.534C284.661 372.737 277.81 373.172 271.111 373.172C256.647 373.027 242.259 373.099 227.795 372.737C213.864 372.447 199.096 371.143 187.753 362.667C187.22 362.087 186.306 363.029 186.915 363.536V363.536Z" fill="#0A1F44"/>
<path d="M288.087 450.258C296.461 451.997 304.758 453.735 313.132 455.474C313.97 455.619 314.35 454.46 313.513 454.243C305.139 452.504 296.841 450.765 288.467 449.026C287.63 448.881 287.249 450.113 288.087 450.258V450.258Z" fill="#0A1F44"/>
<path d="M345.41 426.784C370.303 437.797 395.653 447.867 421.384 456.996C422.221 457.285 422.525 456.054 421.764 455.764C396.186 446.635 370.912 436.565 346.171 425.625C345.334 425.335 344.648 426.422 345.41 426.784V426.784Z" fill="#0A1F44"/>
<path d="M429.072 444.39C423.211 457.503 417.349 470.616 411.487 483.729C411.183 484.454 412.325 485.106 412.629 484.382C418.491 471.268 424.353 458.155 430.214 445.042C430.519 444.317 429.377 443.665 429.072 444.39V444.39Z" fill="#0A1F44"/>
<path d="M292.274 461.995C291.284 464.241 289.533 466.124 287.326 467.283C286.564 467.646 287.25 468.805 288.011 468.37C290.599 466.994 292.502 464.893 293.568 462.357C293.872 461.632 292.578 461.27 292.274 461.995V461.995Z" fill="#0A1F44"/>
<path d="M288.924 484.816C310.468 484.816 332.012 484.816 353.555 484.816C354.393 484.816 354.393 483.512 353.555 483.512C332.012 483.512 310.468 483.512 288.924 483.512C288.087 483.512 288.087 484.816 288.924 484.816V484.816Z" fill="#0A1F44"/>
<path d="M358.427 472.427C354.849 475.615 353.022 480.107 353.631 484.744C353.708 485.541 355.078 485.541 355.002 484.744C354.469 480.397 356.067 476.34 359.417 473.297C359.95 472.79 359.036 471.92 358.427 472.427V472.427Z" fill="#0A1F44"/>
<path d="M432.422 488.366C447.876 471.993 462.568 454.895 476.499 437.289C477.032 436.637 475.89 435.985 475.357 436.637C461.502 454.17 446.886 471.123 431.508 487.497C430.976 488.076 431.889 488.946 432.422 488.366V488.366Z" fill="#0A1F44"/>
<path d="M475.281 435.478C472.693 432.798 471.475 429.465 471.627 425.842C471.703 425.046 470.333 425.046 470.257 425.842C470.028 429.827 471.475 433.45 474.291 436.42C474.9 437 475.814 436.058 475.281 435.478V435.478Z" fill="#0A1F44"/>
<path d="M469.115 430.914C463.177 435.985 455.945 443.52 461.045 451.417C461.502 452.142 462.644 451.489 462.187 450.765C457.391 443.375 464.623 436.42 470.028 431.783C470.713 431.276 469.724 430.407 469.115 430.914V430.914Z" fill="#0A1F44"/>
<path d="M456.478 437.434C457.163 438.666 457.772 439.97 458.457 441.202C458.838 441.926 459.98 441.274 459.599 440.55C458.914 439.318 458.305 438.014 457.62 436.782C457.239 436.058 456.097 436.71 456.478 437.434V437.434Z" fill="#0A1F44"/>
<path d="M456.097 444.679C449.855 447.577 443.993 450.982 438.36 454.75C437.675 455.184 438.36 456.344 439.045 455.836C444.678 451.997 450.616 448.664 456.782 445.766C457.544 445.404 456.858 444.317 456.097 444.679V444.679Z" fill="#0A1F44"/>
<path d="M442.394 446.128C443.156 448.157 444.069 450.04 445.287 451.852C445.668 452.431 446.505 452.142 446.505 451.562C446.81 448.012 447.19 444.534 447.495 440.984C447.114 441.129 446.734 441.274 446.353 441.419C448.408 443.448 450.464 445.549 452.519 447.577C452.824 447.939 453.509 447.795 453.661 447.287C454.499 443.882 454.727 440.55 454.346 437.072C454.27 436.275 452.9 436.275 452.976 437.072C453.357 440.405 453.128 443.665 452.367 446.925C452.748 446.853 453.128 446.708 453.509 446.635C451.453 444.607 449.398 442.506 447.343 440.477C446.886 440.042 446.277 440.405 446.201 440.912C445.896 444.462 445.516 447.939 445.211 451.489C445.592 451.417 446.049 451.272 446.429 451.2C445.287 449.461 444.374 447.722 443.689 445.766C443.384 445.041 442.09 445.331 442.394 446.128V446.128Z" fill="#0A1F44"/>
<path d="M427.93 480.252C430.671 478.078 434.782 478.006 437.598 480.107C438.284 480.614 439.197 479.745 438.512 479.238C435.086 476.629 430.366 476.702 427.017 479.383C426.332 479.89 427.245 480.759 427.93 480.252V480.252Z" fill="#0A1F44"/>
<path d="M287.63 475.398C292.883 475.977 297.07 479.962 297.831 484.961C297.983 485.758 299.278 485.396 299.125 484.599C298.288 479.02 293.492 474.746 287.63 474.094C286.793 474.021 286.793 475.253 287.63 475.398V475.398Z" fill="#0A1F44"/>
<path d="M355.078 475.036C347.389 472.645 334.752 474.456 331.631 482.715C331.327 483.512 332.621 483.802 332.925 483.077C335.818 475.47 347.77 474.094 354.697 476.267C355.535 476.485 355.839 475.253 355.078 475.036V475.036Z" fill="#0A1F44"/>
<path d="M316.33 466.486C322.268 468.95 328.205 471.485 334.143 473.949C334.904 474.311 335.59 473.152 334.828 472.862C328.89 470.399 322.953 467.863 317.015 465.4C316.177 465.11 315.492 466.197 316.33 466.486V466.486Z" fill="#0A1F44"/>
<path d="M343.963 468.515C342.441 469.529 341.223 470.906 340.462 472.5C340.081 473.224 341.223 473.876 341.604 473.152C342.289 471.703 343.278 470.471 344.649 469.602C345.334 469.167 344.649 468.08 343.963 468.515V468.515Z" fill="#0A1F44"/>
<path d="M330.032 465.11C328.967 467.066 327.901 468.95 326.835 470.906C326.531 471.486 327.14 471.993 327.749 471.775C331.783 470.109 335.818 468.37 339.777 466.704C340.538 466.342 339.853 465.255 339.091 465.617C335.057 467.283 331.022 469.022 327.064 470.689C327.368 470.978 327.673 471.268 327.977 471.558C329.043 469.602 330.109 467.718 331.174 465.762C331.631 465.038 330.489 464.385 330.032 465.11V465.11Z" fill="#0A1F44"/>
<path d="M302.779 358.682C304.073 369.26 312.599 378.098 323.638 380.054C324.475 380.199 324.856 378.968 324.018 378.823C313.589 376.939 305.367 368.68 304.149 358.682C304.073 357.885 302.703 357.885 302.779 358.682V358.682Z" fill="#0A1F44"/>
<path d="M166.818 386.43C171.157 383.387 175.496 380.417 179.76 377.374C180.445 376.867 179.76 375.78 179.074 376.287C174.735 379.33 170.396 382.3 166.133 385.343C165.448 385.778 166.133 386.865 166.818 386.43V386.43Z" fill="#0A1F44"/>
<path d="M201.988 363.391C203.435 365.347 204.044 367.593 203.892 369.984C203.815 370.781 205.186 370.781 205.262 369.984C205.49 367.376 204.729 364.913 203.206 362.739C202.673 362.087 201.455 362.667 201.988 363.391V363.391Z" fill="#0A1F44"/>
<path d="M181.358 320.356C181.663 326.804 181.967 333.325 182.272 339.773C182.272 340.57 183.642 340.57 183.642 339.773C183.337 333.325 183.033 326.804 182.728 320.356C182.652 319.559 181.282 319.559 181.358 320.356V320.356Z" fill="#0A1F44"/>
<path d="M305.444 283.987C305.367 292.101 304.682 300.215 303.312 308.257C303.16 309.054 304.454 309.416 304.606 308.619C305.976 300.433 306.662 292.246 306.738 283.987C306.814 283.19 305.444 283.19 305.444 283.987V283.987Z" fill="#0A1F44"/>
<path d="M276.059 304.055C285.118 304.055 294.253 304.055 303.312 304.055C304.15 304.055 304.15 302.751 303.312 302.751C294.253 302.751 285.118 302.751 276.059 302.751C275.222 302.824 275.222 304.055 276.059 304.055V304.055Z" fill="#0A1F44"/>
<path d="M107.82 317.676C117.793 321.226 128.146 329.557 127.765 340.497C127.765 341.294 129.06 341.294 129.136 340.497C129.516 328.905 118.706 320.139 108.201 316.444C107.364 316.154 106.983 317.386 107.82 317.676V317.676Z" fill="#0A1F44"/>
<path d="M286.793 397.66C287.097 394.689 287.554 391.791 288.163 388.893C288.315 388.096 287.021 387.734 286.869 388.531C286.26 391.574 285.803 394.617 285.499 397.66C285.346 398.457 286.717 398.457 286.793 397.66V397.66Z" fill="#0A1F44"/>
<path d="M288.62 398.746C290.371 397.877 292.122 396.935 293.873 396.066C294.634 395.704 293.949 394.617 293.187 394.979C291.437 395.848 289.686 396.79 287.935 397.66C287.173 398.022 287.859 399.109 288.62 398.746V398.746Z" fill="#0A1F44"/>
<path d="M545.241 329.412L612.993 489.815H599.442L516.693 329.412H545.241Z" fill="#FF4F00" stroke="#0A1F44" stroke-width="2" stroke-linecap="round" stroke-linejoin="round"/>
<path d="M367.639 329.412L299.963 489.815H313.513L396.262 329.412H367.639Z" fill="#FF4F00" stroke="#0A1F44" stroke-width="2" stroke-linecap="round" stroke-linejoin="round"/>
<path d="M556.051 355.06H529.939L516.693 329.412H545.241L556.051 355.06Z" fill="#0A1F44" stroke="#0A1F44" stroke-width="2" stroke-linecap="round" stroke-linejoin="round"/>
<path d="M396.262 329.412L383.016 355.06H356.829L367.639 329.412H396.262Z" fill="#0A1F44" stroke="#0A1F44" stroke-width="2" stroke-linecap="round" stroke-linejoin="round"/>
<rect x="294.253" y="309.561" width="384.817" height="12.896" fill="#FF4F00" stroke="#0A1F44" stroke-width="2" stroke-linecap="round" stroke-linejoin="round"/>
<rect x="294.253" y="309.561" width="288.442" height="12.896" fill="#FF4F00" stroke="#0A1F44" stroke-width="2" stroke-linecap="round" stroke-linejoin="round"/>
<rect x="309.783" y="322.385" width="353.834" height="23.3287" fill="#FF4F00" stroke="#0A1F44" stroke-width="2" stroke-linecap="round" stroke-linejoin="round"/>
<rect x="309.783" y="322.385" width="291.03" height="23.3287" fill="#FF4F00" stroke="#0A1F44" stroke-width="2" stroke-linecap="round" stroke-linejoin="round"/>
<rect x="309.783" y="322.385" width="353.834" height="7.96942" fill="#0A1F44" stroke="#0A1F44" stroke-width="2" stroke-linecap="round" stroke-linejoin="round"/>
<path d="M328.358 422.51L299.963 489.815H313.513L348.227 422.51H328.358Z" fill="#FFE394" stroke="#0A1F44" stroke-width="2" stroke-linecap="round" stroke-linejoin="round"/>
<path d="M584.522 422.51H564.729L599.443 489.815H612.993L584.522 422.51Z" fill="#FFE394" stroke="#0A1F44" stroke-width="2" stroke-linecap="round" stroke-linejoin="round"/>
<path d="M540.14 349.771C562.141 396.573 584.065 443.375 606.066 490.105C606.446 490.829 607.588 490.177 607.207 489.453C585.207 442.651 563.283 395.848 541.282 349.119C540.978 348.322 539.836 348.974 540.14 349.771V349.771Z" fill="#0A1F44"/>
<path d="M373.348 349.119C351.348 395.921 329.423 442.723 307.423 489.453C307.042 490.177 308.26 490.829 308.565 490.105C330.565 443.303 352.49 396.5 374.49 349.771C374.871 348.974 373.729 348.322 373.348 349.119V349.119Z" fill="#0A1F44"/>
<rect x="90.0829" y="455.402" width="160.093" height="11.8817" fill="#FF4F00" stroke="#0A1F44" stroke-width="2" stroke-linecap="round" stroke-linejoin="round"/>
<path d="M241.802 422.51H221.933L254.896 486.41C255.962 488.511 258.245 489.815 260.682 489.815V489.815C265.249 489.815 268.37 485.396 266.695 481.411L241.802 422.51Z" fill="#FF4F00" stroke="#0A1F44" stroke-width="2" stroke-linecap="round" stroke-linejoin="round"/>
<path d="M133.17 345.134L75.6952 481.339C74.0204 485.396 77.1416 489.743 81.7092 489.743V489.743C84.1452 489.743 86.429 488.439 87.4947 486.338L160.271 345.134H133.17Z" fill="#FF4F00" stroke="#0A1F44" stroke-width="2" stroke-linecap="round" stroke-linejoin="round"/>
<path d="M149.766 365.492L160.271 345.134H133.17L124.568 365.492H149.766Z" fill="#0A1F44" stroke="#0A1F44" stroke-width="2" stroke-linecap="round" stroke-linejoin="round"/>
<path d="M223.532 345.134H124.416C123.122 345.134 122.132 346.148 122.132 347.308V355.857C122.132 357.088 123.198 358.03 124.416 358.03H232.439C233.733 358.03 234.723 357.016 234.723 355.857V355.857C234.723 349.916 229.698 345.134 223.532 345.134Z" fill="#FF4F00" stroke="#0A1F44" stroke-width="2" stroke-linecap="round" stroke-linejoin="round"/>
<path d="M209.753 345.134H124.416C123.122 345.134 122.132 346.148 122.132 347.308V355.857C122.132 357.088 123.198 358.03 124.416 358.03H218.66C219.954 358.03 220.944 357.016 220.944 355.857V355.857C220.944 349.916 215.919 345.134 209.753 345.134Z" fill="#FF4F00" stroke="#0A1F44" stroke-width="2" stroke-linecap="round" stroke-linejoin="round"/>
<path d="M144.132 360.783C144.513 360.059 144.894 359.262 145.198 358.537C144.818 358.32 144.437 358.102 144.056 357.885C131.8 383.387 119.468 408.962 107.211 434.464C107.592 434.681 107.973 434.899 108.353 435.116C109.495 432.725 110.637 430.407 111.779 428.016C112.16 427.292 111.018 426.639 110.637 427.364C104.319 440.405 98.0762 453.518 91.7578 466.559C91.3771 467.284 92.519 467.936 92.8997 467.211C99.2181 454.17 105.46 441.057 111.779 428.016C111.398 427.799 111.018 427.581 110.637 427.364C109.495 429.755 108.353 432.073 107.211 434.464C106.831 435.188 107.973 435.841 108.353 435.116C120.61 409.614 132.942 384.039 145.198 358.537C145.579 357.813 144.437 357.161 144.056 357.885C143.676 358.61 143.295 359.407 142.991 360.131C142.61 360.856 143.752 361.508 144.132 360.783V360.783Z" fill="#0A1F44"/>
<path d="M232.058 423.524C231.906 423.234 231.754 422.945 231.677 422.582C231.297 422.8 230.916 423.017 230.536 423.234C235.179 433.595 239.823 443.882 244.467 454.243C244.847 454.025 245.228 453.808 245.609 453.591C245.152 452.649 244.771 451.707 244.314 450.693C244.01 449.968 242.792 450.62 243.173 451.345C245.532 456.633 247.968 461.922 250.328 467.211C250.633 467.936 251.851 467.283 251.47 466.559C249.11 461.27 246.674 455.981 244.314 450.693C243.934 450.91 243.553 451.127 243.173 451.345C243.629 452.286 244.01 453.228 244.467 454.243C244.771 454.967 245.989 454.315 245.609 453.591C240.965 443.23 236.321 432.943 231.677 422.582C231.373 421.858 230.155 422.51 230.536 423.234C230.688 423.524 230.84 423.814 230.916 424.176C231.297 424.901 232.439 424.249 232.058 423.524V423.524Z" fill="#0A1F44"/>
<path d="M244.695 429.465L241.802 422.51H221.933L225.511 429.465H244.695Z" fill="#0A1F44" stroke="#0A1F44" stroke-width="2" stroke-linecap="round" stroke-linejoin="round"/>
<path d="M488.831 284.856C488.831 284.856 485.862 271.091 485.33 264.86C484.797 258.557 484.797 255.079 487.766 255.079C490.734 255.079 490.734 261.6 491.267 268.555C491.8 275.51 492.866 283.914 492.866 283.914L488.831 284.856Z" fill="#0FB763" stroke="#0A1F44" stroke-width="2" stroke-linecap="round" stroke-linejoin="round"/>
<path d="M514.562 292.536C514.562 292.536 517.759 278.77 518.292 272.54C518.825 266.309 518.901 262.759 515.704 262.759C512.506 262.759 512.506 269.28 511.974 276.235C511.365 283.19 510.223 291.594 510.223 291.594L514.562 292.536Z" fill="#0FB763" stroke="#0A1F44" stroke-width="2" stroke-linecap="round" stroke-linejoin="round"/>
<path d="M512.354 253.196C509.918 253.631 511.821 255.732 510.223 257.615C509.385 258.557 507.787 259.861 506.416 259.789C506.34 254.065 505.731 248.704 503.447 248.704C498.88 248.704 498.88 252.906 498.88 260.586C498.88 268.265 500.479 284.784 500.783 285.508C501.088 286.233 506.492 285.726 506.492 285.726C506.492 285.726 506.797 277.611 506.492 271.526C506.416 269.714 506.492 268.772 506.492 265.73C508.396 265.585 510.147 264.353 512.963 262.687C517.759 259.934 514.79 252.689 512.354 253.196Z" fill="#0FB763" stroke="#0A1F44" stroke-width="2" stroke-linecap="round" stroke-linejoin="round"/>
<path d="M495.454 261.89C491.648 262.107 493.703 273.192 493.78 277.249C493.78 281.306 494.465 286.74 494.465 286.74C494.465 286.74 499.565 286.812 499.793 286.305C500.022 285.798 500.707 274.713 500.402 269.569C500.098 264.425 499.793 261.672 495.454 261.89Z" fill="#0FB763" stroke="#0A1F44" stroke-width="2" stroke-linecap="round" stroke-linejoin="round"/>
<path d="M516.161 309.56H489.06H473.149C471.855 309.56 470.866 308.329 471.322 307.097L480.534 282.319C480.838 281.595 481.523 281.088 482.361 281.088H489.06H516.161H522.86C523.697 281.088 524.382 281.595 524.687 282.319L533.898 307.097C534.355 308.256 533.441 309.56 532.071 309.56H516.161Z" fill="#FF8249" stroke="#0A1F44" stroke-width="2" stroke-linecap="round" stroke-linejoin="round"/>
<path d="M480.914 280.871L502.61 308.837L523.925 281.379" fill="white"/>
<path d="M480.914 280.871L502.61 308.837L523.925 281.379" stroke="#0A1F44" stroke-width="2" stroke-linecap="round" stroke-linejoin="round"/>
<path d="M486.776 263.918L487.766 265.078" stroke="white" stroke-width="2" stroke-linecap="round" stroke-linejoin="round"/>
<path d="M487.766 258.774L488.451 260.151" stroke="white" stroke-width="2" stroke-linecap="round" stroke-linejoin="round"/>
<path d="M488.755 268.555L488.451 269.932" stroke="white" stroke-width="2" stroke-linecap="round" stroke-linejoin="round"/>
<path d="M488.984 274.351L489.973 275.293" stroke="white" stroke-width="2" stroke-linecap="round" stroke-linejoin="round"/>
<path d="M496.52 266.889L496.292 268.048" stroke="white" stroke-width="2" stroke-linecap="round" stroke-linejoin="round"/>
<path d="M498.499 270.873L496.824 273.192" stroke="white" stroke-width="2" stroke-linecap="round" stroke-linejoin="round"/>
<path d="M496.52 277.176L498.271 277.829" stroke="white" stroke-width="2" stroke-linecap="round" stroke-linejoin="round"/>
<path d="M502.153 262.252L502.915 264.136" stroke="white" stroke-width="2" stroke-linecap="round" stroke-linejoin="round"/>
<path d="M503.143 256.456L504.133 257.833" stroke="white" stroke-width="2" stroke-linecap="round" stroke-linejoin="round"/>
<path d="M502.915 250.588L500.935 253.631" stroke="white" stroke-width="2" stroke-linecap="round" stroke-linejoin="round"/>
<path d="M509.538 261.817L509.994 262.759" stroke="white" stroke-width="2" stroke-linecap="round" stroke-linejoin="round"/>
<path d="M512.43 258.992L514.181 259.499" stroke="white" stroke-width="2" stroke-linecap="round" stroke-linejoin="round"/>
<path d="M504.361 271.598L503.371 273.192" stroke="white" stroke-width="2" stroke-linecap="round" stroke-linejoin="round"/>
<path d="M503.143 276.959L505.351 278.553" stroke="white" stroke-width="2" stroke-linecap="round" stroke-linejoin="round"/>
<path d="M515.628 273.192L513.648 274.858" stroke="white" stroke-width="2" stroke-linecap="round" stroke-linejoin="round"/>
<path d="M515.399 267.613L516.617 268.772" stroke="white" stroke-width="2" stroke-linecap="round" stroke-linejoin="round"/>
<path d="M514.943 277.394L516.389 278.553" stroke="white" stroke-width="2" stroke-linecap="round" stroke-linejoin="round"/>
<path d="M389.944 79.3901C389.258 93.8075 376.926 105.544 361.777 106.124C355.915 106.341 350.434 104.965 345.79 102.357C344.572 101.705 343.431 100.98 342.365 100.111C336.046 95.329 331.859 88.2289 331.25 80.1146H361.701V80.1146L362.69 78.7381L364.517 76.1299L378.829 56.1339V56.1339C385.985 61.5676 390.4 69.9717 389.944 79.3901Z" fill="#FF4F00" stroke="#FF4F00" stroke-width="2" stroke-linecap="round" stroke-linejoin="round"/>
<path d="M358.58 50.2655V76.2023V76.2023H331.327C332.316 62.2921 343.963 51.2073 358.58 50.2655V50.2655Z" fill="#FF4F00" stroke="#FF4F00" stroke-width="2" stroke-linecap="round" stroke-linejoin="round"/>
<path d="M375.403 53.9605L362.69 71.7105V71.7105V50.1931V50.1931C367.258 50.5554 371.597 51.8594 375.403 53.9605V53.9605Z" fill="#FF4F00" stroke="#FF4F00" stroke-width="2" stroke-linecap="round" stroke-linejoin="round"/>
<path d="M392.989 75.2605C392.303 89.6779 379.971 101.415 364.822 101.994C358.96 102.212 353.479 100.835 348.835 98.2269C347.617 97.5749 346.476 96.8504 345.41 95.981C339.091 91.1993 334.904 84.0993 334.295 75.985H364.746V75.985L365.735 74.6084L367.562 72.0003L381.874 52.0043V52.0043C388.954 57.438 393.445 65.9145 392.989 75.2605Z" fill="#FFF2D2" stroke="#FF4F00" stroke-width="2" stroke-linecap="round" stroke-linejoin="round"/>
<path d="M361.625 46.1359V72.0727V72.0727H334.371C335.361 58.2349 347.008 47.0777 361.625 46.1359V46.1359Z" fill="#FFF2D2" stroke="#FF4F00" stroke-width="2" stroke-linecap="round" stroke-linejoin="round"/>
<path d="M378.448 49.8308L365.735 67.5809V67.5809V46.0635V46.0635C370.303 46.4257 374.642 47.7298 378.448 49.8308V49.8308Z" fill="white" stroke="#FF4F00" stroke-width="2" stroke-linecap="round" stroke-linejoin="round"/>
<path d="M570.667 57.2931V10.6357C570.667 8.02754 568.611 5.92651 566.023 5.92651H533.67C531.081 5.92651 529.026 8.02754 529.026 10.6357V57.2931C529.026 59.9012 531.081 62.0023 533.67 62.0023H566.023C568.611 62.0747 570.667 59.9012 570.667 57.2931Z" fill="#FF4F00" stroke="#FF4F00" stroke-width="2"/>
<path d="M574.321 54.3951V7.73777C574.321 5.12959 572.265 3.02856 569.677 3.02856H537.324C534.735 3.02856 532.68 5.12959 532.68 7.73777V54.3951C532.68 57.0033 534.735 59.1043 537.324 59.1043H569.677C572.265 59.1043 574.321 57.0033 574.321 54.3951Z" fill="#FFF2D2" stroke="#FF4F00" stroke-width="2" stroke-linecap="round" stroke-linejoin="round"/>
<rect x="540.14" y="11.9398" width="26.7202" height="6.59288" fill="#FF4F00" stroke="#FF4F00" stroke-width="2"/>
<path d="M544.556 36.2828H540.825C540.369 36.2828 539.988 35.9205 539.988 35.4858V32.298C539.988 31.8633 540.369 31.5011 540.825 31.5011H544.556C545.012 31.5011 545.393 31.8633 545.393 32.298V35.4858C545.393 35.9205 545.012 36.2828 544.556 36.2828Z" fill="#FFCA76"/>
<path d="M552.092 36.2828H548.362C547.905 36.2828 547.524 35.9205 547.524 35.4858V32.298C547.524 31.8633 547.905 31.5011 548.362 31.5011H552.092C552.549 31.5011 552.929 31.8633 552.929 32.298V35.4858C552.929 35.9205 552.549 36.2828 552.092 36.2828Z" fill="#FFCA76"/>
<path d="M559.324 36.2828H555.594C555.137 36.2828 554.756 35.9205 554.756 35.4858V32.298C554.756 31.8633 555.137 31.5011 555.594 31.5011H559.324C559.781 31.5011 560.161 31.8633 560.161 32.298V35.4858C560.085 35.9205 559.705 36.2828 559.324 36.2828Z" fill="#FFCA76"/>
<path d="M566.251 36.2828H562.521C562.064 36.2828 561.684 35.9205 561.684 35.4858V32.298C561.684 31.8633 562.064 31.5011 562.521 31.5011H566.251C566.708 31.5011 567.089 31.8633 567.089 32.298V35.4858C567.089 35.9205 566.708 36.2828 566.251 36.2828Z" fill="#FFCA76"/>
<path d="M544.556 42.8031H540.825C540.369 42.8031 539.988 42.4409 539.988 42.0062V38.8184C539.988 38.3837 540.369 38.0215 540.825 38.0215H544.556C545.012 38.0215 545.393 38.3837 545.393 38.8184V42.0062C545.393 42.4409 545.012 42.8031 544.556 42.8031Z" fill="#FFCA76"/>
<path d="M552.092 42.8031H548.362C547.905 42.8031 547.524 42.4409 547.524 42.0062V38.8184C547.524 38.3837 547.905 38.0215 548.362 38.0215H552.092C552.549 38.0215 552.929 38.3837 552.929 38.8184V42.0062C552.929 42.4409 552.549 42.8031 552.092 42.8031Z" fill="#FFCA76"/>
<path d="M559.324 42.8031H555.594C555.137 42.8031 554.756 42.4409 554.756 42.0062V38.8184C554.756 38.3837 555.137 38.0215 555.594 38.0215H559.324C559.781 38.0215 560.161 38.3837 560.161 38.8184V42.0062C560.085 42.4409 559.705 42.8031 559.324 42.8031Z" fill="#FFCA76"/>
<path d="M566.251 49.1787H562.521C562.064 49.1787 561.684 48.8164 561.684 48.3817V38.8184C561.684 38.3837 562.064 38.0215 562.521 38.0215H566.251C566.708 38.0215 567.089 38.3837 567.089 38.8184V48.3817C567.089 48.8164 566.708 49.1787 566.251 49.1787Z" fill="#FFCA76"/>
<path d="M544.556 49.3236H540.825C540.369 49.3236 539.988 48.9614 539.988 48.5267V45.3389C539.988 44.9042 540.369 44.542 540.825 44.542H544.556C545.012 44.542 545.393 44.9042 545.393 45.3389V48.5267C545.393 48.9614 545.012 49.3236 544.556 49.3236Z" fill="#FFCA76"/>
<path d="M552.092 49.3236H548.362C547.905 49.3236 547.524 48.9614 547.524 48.5267V45.3389C547.524 44.9042 547.905 44.542 548.362 44.542H552.092C552.549 44.542 552.929 44.9042 552.929 45.3389V48.5267C552.929 48.9614 552.549 49.3236 552.092 49.3236Z" fill="#FFCA76"/>
<path d="M559.324 49.3236H555.594C555.137 49.3236 554.756 48.9614 554.756 48.5267V45.3389C554.756 44.9042 555.137 44.542 555.594 44.542H559.324C559.781 44.542 560.161 44.9042 560.161 45.3389V48.5267C560.085 48.9614 559.705 49.3236 559.324 49.3236Z" fill="#FFCA76"/>
<path d="M542.729 26.9368C542.729 27.6613 542.12 28.2409 541.358 28.2409C540.597 28.2409 539.988 27.6613 539.988 26.9368C539.988 26.2123 540.597 25.6327 541.358 25.6327C542.12 25.7051 542.729 26.2847 542.729 26.9368Z" fill="#FFCA76"/>
<path d="M546.915 26.9368C546.915 27.6613 546.306 28.2409 545.545 28.2409C544.784 28.2409 544.175 27.6613 544.175 26.9368C544.175 26.2123 544.784 25.6327 545.545 25.6327C546.306 25.7051 546.915 26.2847 546.915 26.9368Z" fill="#FFCA76"/>
<path d="M551.483 26.9368C551.483 27.6613 550.874 28.2409 550.113 28.2409C549.352 28.2409 548.742 27.6613 548.742 26.9368C548.742 26.2123 549.352 25.6327 550.113 25.6327C550.874 25.6327 551.483 26.2847 551.483 26.9368Z" fill="#FFCA76"/>
<path d="M700.766 130.684L657.603 131.046C653.873 131.046 650.828 134.017 650.904 137.567L651.056 156.476C651.056 160.026 654.177 162.924 657.907 162.852L671.838 162.707L679.756 172.343L687.216 162.562L701.071 162.417C704.801 162.417 707.846 159.447 707.77 155.897L707.618 137.06C707.542 133.51 704.497 130.612 700.766 130.684Z" fill="#FF4F00" stroke="#FF4F00" stroke-width="2" stroke-linecap="round" stroke-linejoin="round"/>
<path d="M704.573 129.09L661.409 129.453C657.679 129.453 654.634 132.423 654.71 135.973L654.862 154.882C654.862 158.432 657.983 161.33 661.714 161.258L675.645 161.113L683.562 170.749L691.022 160.968L704.877 160.823C708.607 160.823 711.652 157.853 711.576 154.303L711.424 135.393C711.348 131.916 708.303 129.018 704.573 129.09Z" fill="#FFF2D2" stroke="#FF4F00" stroke-width="2" stroke-linecap="round" stroke-linejoin="round"/>
<path d="M687.597 144.812C687.597 147.203 685.541 149.231 683.029 149.231C680.517 149.231 678.385 147.275 678.385 144.884C678.385 142.493 680.441 140.465 682.953 140.465C685.465 140.465 687.597 142.421 687.597 144.812Z" fill="white" stroke="#FF4F00" stroke-width="2" stroke-linecap="round" stroke-linejoin="round"/>
<path d="M674.046 144.957C674.046 147.348 671.991 149.376 669.478 149.376C666.966 149.376 664.835 147.42 664.835 145.029C664.835 142.638 666.89 140.61 669.402 140.61C671.991 140.537 674.046 142.493 674.046 144.957Z" fill="white" stroke="#FF4F00" stroke-width="2" stroke-linecap="round" stroke-linejoin="round"/>
<path d="M700.919 144.667C700.919 147.058 698.863 149.086 696.351 149.086C693.839 149.086 691.707 147.13 691.707 144.739C691.707 142.349 693.763 140.32 696.275 140.32C698.787 140.32 700.842 142.276 700.919 144.667Z" fill="white" stroke="#FF4F00" stroke-width="2" stroke-linecap="round" stroke-linejoin="round"/>
<path d="M524.991 204.727C524.991 205.379 524.991 206.104 524.839 206.828C523.469 213.639 518.445 216.971 512.735 218.058V222.477H505.351V218.203C499.261 217.044 493.932 212.407 493.095 206.683H501.088C502.001 209.219 505.427 211.103 508.396 211.103C511.365 211.103 515.019 210.668 516.465 207.625C516.77 207.046 517.379 205.162 517.15 204.51C515.247 197.627 502.991 203.93 496.825 196.323C495.226 194.367 494.617 191.904 494.617 189.296C494.617 189.006 494.617 188.644 494.693 188.354C495.15 182.558 499.489 177.849 505.275 176.617V171.908H512.659V176.834C517.988 178.211 522.099 182.051 522.479 187.412H514.867C514.41 184.659 511.365 183.5 508.396 183.5C505.351 183.5 502.839 185.601 502.382 188.354C502.306 188.644 502.23 189.006 502.306 189.296C503.219 196.541 513.192 191.034 520.5 196.178C523.012 197.772 524.991 201.54 524.991 204.727Z" fill="#FF4F00" stroke="#FF4F00" stroke-width="2" stroke-linecap="round" stroke-linejoin="round"/>
<path d="M521.642 203.713C521.642 204.365 521.642 205.09 521.49 205.814C520.119 212.624 515.095 215.957 509.386 217.044V221.463H502.001V217.189C495.911 216.029 490.582 211.393 489.745 205.669H497.738C498.652 208.205 502.077 210.089 505.046 210.089C508.015 210.089 511.669 209.654 513.116 206.611C513.42 206.031 514.029 204.148 513.801 203.496C511.898 196.613 499.641 202.916 493.475 195.309C491.877 193.353 491.268 190.89 491.268 188.281C491.268 187.992 491.268 187.629 491.344 187.34C491.8 181.544 496.14 176.834 501.925 175.603V170.894H509.309V175.82C514.638 177.197 518.749 181.036 519.13 186.398H511.517C511.06 183.645 508.015 182.485 505.046 182.485C502.077 182.485 499.489 184.586 499.032 187.34C498.956 187.629 498.88 187.992 498.956 188.281C499.87 195.526 509.842 190.02 517.15 195.164C519.663 196.758 521.642 200.525 521.642 203.713Z" fill="#FFF2D2" stroke="#FF4F00" stroke-width="2" stroke-linecap="round" stroke-linejoin="round"/>
<path d="M357.286 225.158L343.126 224.723V220.304C343.126 216.102 342.517 207.77 335.361 208.567C333.991 208.712 335.361 212.986 334.904 214.725L333.839 219C333.23 222.912 329.804 227.621 325.693 227.621H324.323C323.638 226.462 322.344 225.665 320.897 225.665H311.534C309.402 225.665 307.651 227.331 307.651 229.36V252.109C307.651 254.138 309.402 255.804 311.534 255.804H320.897C322.953 255.804 324.627 254.282 324.78 252.326C326.683 253.775 329.119 254.645 331.783 254.645L349.368 255.079C352.49 255.079 355.154 252.834 355.382 249.863L357.057 235.446H357.286C359.113 235.446 360.635 232.185 360.635 230.447V228.418C360.559 226.534 359.113 225.158 357.286 225.158Z" fill="#FF4F00" stroke="#FF4F00" stroke-width="2" stroke-linecap="round" stroke-linejoin="round"/>
<path d="M361.244 221.318L347.085 220.883V216.464C347.085 212.262 346.476 203.93 339.32 204.727C337.95 204.872 339.32 209.147 338.863 210.885L337.797 215.16C337.188 219.072 333.763 223.781 329.652 223.781H324.399V240.01C324.399 245.951 329.5 250.805 335.742 250.805L353.327 251.24C356.448 251.24 359.113 248.994 359.341 246.023L361.016 231.606H361.244C363.071 231.606 364.594 228.346 364.594 226.607V224.578C364.594 222.767 363.147 221.318 361.244 221.318Z" fill="#FFF2D2" stroke="#FF4F00" stroke-width="2" stroke-linecap="round" stroke-linejoin="round"/>
<path d="M324.323 251.964H316.025C313.589 251.964 311.61 250.081 311.61 247.762V226.027C311.61 223.709 313.589 221.825 316.025 221.825H324.323C326.759 221.825 328.738 223.709 328.738 226.027V247.762C328.738 250.081 326.759 251.964 324.323 251.964Z" fill="white" stroke="#FF4F00" stroke-width="2" stroke-linecap="round" stroke-linejoin="round"/>
<path d="M578.127 22.6624H577.214C576.909 22.6624 576.605 22.3726 576.605 22.0828V21.2134C576.605 20.0542 575.691 19.1124 574.473 19.0399C573.179 18.9675 572.037 19.9818 572.037 21.2134V22.0828C572.037 22.3726 571.733 22.6624 571.428 22.6624H570.515C569.297 22.6624 568.307 23.5318 568.231 24.691C568.155 25.9226 569.22 27.0093 570.515 27.0093H571.428C571.733 27.0093 572.037 27.2991 572.037 27.5889V28.4583C572.037 29.6175 572.951 30.5593 574.169 30.6318C575.463 30.7042 576.605 29.69 576.605 28.4583V27.5889C576.605 27.2991 576.909 27.0093 577.214 27.0093H578.127C579.421 27.0093 580.487 25.995 580.411 24.691C580.335 23.5318 579.345 22.6624 578.127 22.6624Z" fill="white" stroke="#FF4F00" stroke-width="2" stroke-linecap="round" stroke-linejoin="round"/>
<path d="M525.829 198.279H524.915C524.611 198.279 524.306 197.99 524.306 197.7V196.83C524.306 195.671 523.393 194.729 522.175 194.657C520.88 194.584 519.739 195.599 519.739 196.83V197.7C519.739 197.99 519.434 198.279 519.13 198.279H518.216C516.998 198.279 516.008 199.149 515.932 200.308C515.856 201.54 516.922 202.626 518.216 202.626H519.13C519.434 202.626 519.739 202.916 519.739 203.206V204.075C519.739 205.234 520.652 206.176 521.87 206.249C523.164 206.321 524.306 205.307 524.306 204.075V203.206C524.306 202.916 524.611 202.626 524.915 202.626H525.829C527.123 202.626 528.189 201.612 528.112 200.308C528.036 199.149 527.047 198.279 525.829 198.279Z" fill="white" stroke="#FF4F00" stroke-width="2" stroke-linecap="round" stroke-linejoin="round"/>
<path d="M316.939 222.115H316.025C315.721 222.115 315.416 221.825 315.416 221.536V220.666C315.416 219.507 314.503 218.565 313.285 218.493C311.99 218.42 310.849 219.435 310.849 220.666V221.536C310.849 221.825 310.544 222.115 310.24 222.115H309.326C308.108 222.115 307.118 222.985 307.042 224.144C306.966 225.375 308.032 226.462 309.326 226.462H310.24C310.544 226.462 310.849 226.752 310.849 227.042V227.911C310.849 229.07 311.762 230.012 312.98 230.085C314.274 230.157 315.416 229.143 315.416 227.911V227.042C315.416 226.752 315.721 226.462 316.025 226.462H316.939C318.233 226.462 319.299 225.448 319.222 224.144C319.146 222.985 318.081 222.115 316.939 222.115Z" fill="white" stroke="#FF4F00" stroke-width="2" stroke-linecap="round" stroke-linejoin="round"/>
<path d="M658.44 131.046H657.527C657.222 131.046 656.918 130.757 656.918 130.467V129.597C656.918 128.438 656.004 127.496 654.786 127.424C653.492 127.351 652.35 128.366 652.35 129.597V130.467C652.35 130.757 652.046 131.046 651.741 131.046H650.828C649.61 131.046 648.62 131.916 648.544 133.075C648.468 134.307 649.533 135.393 650.828 135.393H651.741C652.046 135.393 652.35 135.683 652.35 135.973V136.842C652.35 138.002 653.264 138.943 654.482 139.016C655.776 139.088 656.918 138.074 656.918 136.842V135.973C656.918 135.683 657.222 135.393 657.527 135.393H658.44C659.734 135.393 660.8 134.379 660.724 133.075C660.648 131.916 659.658 131.046 658.44 131.046Z" fill="white" stroke="#FF4F00" stroke-width="2" stroke-linecap="round" stroke-linejoin="round"/>
<path d="M265.097 138.147H264.488C264.259 138.147 264.107 138.002 264.107 137.784V137.205C264.107 136.408 263.498 135.756 262.661 135.683C261.747 135.611 260.986 136.335 260.986 137.132V137.784C260.986 138.002 260.834 138.147 260.605 138.147H259.996C259.159 138.147 258.474 138.726 258.398 139.523C258.322 140.392 259.083 141.117 259.92 141.117H260.605C260.834 141.117 260.986 141.262 260.986 141.479V142.059C260.986 142.856 261.595 143.508 262.432 143.58C263.346 143.653 264.107 142.928 264.107 142.131V141.479C264.107 141.262 264.259 141.117 264.488 141.117H265.173C266.087 141.117 266.772 140.392 266.696 139.523C266.619 138.726 265.934 138.147 265.097 138.147Z" fill="white" stroke="#FF4F00" stroke-width="2" stroke-linecap="round" stroke-linejoin="round"/>
<path d="M645.042 53.3084H644.433C644.205 53.3084 644.052 53.1635 644.052 52.9461V52.3665C644.052 51.5696 643.443 50.9175 642.606 50.8451C641.693 50.7726 640.931 51.4971 640.931 52.2941V52.9461C640.931 53.1635 640.779 53.3084 640.551 53.3084H639.942C639.104 53.3084 638.419 53.888 638.343 54.6849C638.267 55.5543 639.028 56.2788 639.865 56.2788H640.551C640.779 56.2788 640.931 56.4237 640.931 56.641V57.2206C640.931 58.0176 641.54 58.6696 642.378 58.7421C643.291 58.8145 644.052 58.09 644.052 57.2931V56.641C644.052 56.4237 644.205 56.2788 644.433 56.2788H645.118C646.032 56.2788 646.717 55.5543 646.641 54.6849C646.565 53.9604 645.803 53.3084 645.042 53.3084Z" fill="white" stroke="#FF4F00" stroke-width="2" stroke-linecap="round" stroke-linejoin="round"/>
<path d="M471.399 168.575H470.79C470.561 168.575 470.409 168.43 470.409 168.213V167.633C470.409 166.836 469.8 166.184 468.963 166.112C468.049 166.039 467.288 166.764 467.288 167.561V168.213C467.288 168.43 467.135 168.575 466.907 168.575H466.298C465.461 168.575 464.776 169.155 464.699 169.952C464.623 170.821 465.385 171.546 466.222 171.546H466.907C467.135 171.546 467.288 171.69 467.288 171.908V172.487C467.288 173.284 467.897 173.936 468.734 174.009C469.648 174.081 470.409 173.357 470.409 172.56V171.908C470.409 171.69 470.561 171.546 470.79 171.546H471.475C472.388 171.546 473.073 170.821 472.997 169.952C472.921 169.155 472.16 168.575 471.399 168.575Z" fill="white" stroke="#FF4F00" stroke-width="2" stroke-linecap="round" stroke-linejoin="round"/>
<path d="M469.876 51.2073H469.267C469.039 51.2073 468.886 51.0624 468.886 50.8451V50.2655C468.886 49.4685 468.277 48.8165 467.44 48.744C466.526 48.6716 465.765 49.3961 465.765 50.193V50.8451C465.765 51.0624 465.613 51.2073 465.385 51.2073H464.776C463.938 51.2073 463.253 51.7869 463.177 52.5838C463.101 53.4532 463.862 54.1777 464.699 54.1777H465.385C465.613 54.1777 465.765 54.3226 465.765 54.54V55.1196C465.765 55.9165 466.374 56.5685 467.212 56.641C468.125 56.7134 468.886 55.989 468.886 55.192V54.54C468.886 54.3226 469.039 54.1777 469.267 54.1777H469.952C470.866 54.1777 471.551 53.4532 471.475 52.5838C471.399 51.8593 470.713 51.2073 469.876 51.2073Z" fill="white" stroke="#FF4F00" stroke-width="2" stroke-linecap="round" stroke-linejoin="round"/>
<path d="M697.721 184.152H697.112C696.884 184.152 696.732 184.007 696.732 183.79V183.21C696.732 182.413 696.123 181.761 695.285 181.688C694.372 181.616 693.611 182.341 693.611 183.137V183.79C693.611 184.007 693.458 184.152 693.23 184.152H692.621C691.783 184.152 691.098 184.731 691.022 185.528C690.946 186.398 691.707 187.122 692.545 187.122H693.23C693.458 187.122 693.611 187.267 693.611 187.484V188.064C693.611 188.861 694.22 189.513 695.057 189.585C695.97 189.658 696.732 188.933 696.732 188.136V187.484C696.732 187.267 696.884 187.122 697.112 187.122H697.797C698.711 187.122 699.396 186.398 699.32 185.528C699.244 184.731 698.559 184.152 697.721 184.152Z" fill="white" stroke="#FF4F00" stroke-width="2" stroke-linecap="round" stroke-linejoin="round"/>
<path d="M394.283 65.4799H393.369C393.065 65.4799 392.76 65.1901 392.76 64.9003V64.0309C392.76 62.8717 391.847 61.9299 390.629 61.8574C389.335 61.785 388.193 62.7993 388.193 64.0309V64.9003C388.193 65.1901 387.888 65.4799 387.584 65.4799H386.67C385.452 65.4799 384.463 66.3493 384.386 67.5085C384.31 68.7401 385.376 69.8268 386.67 69.8268H387.584C387.888 69.8268 388.193 70.1166 388.193 70.4064V71.2758C388.193 72.435 389.106 73.3768 390.324 73.4493C391.618 73.5217 392.76 72.5075 392.76 71.2758V70.4064C392.76 70.1166 393.065 69.8268 393.369 69.8268H394.283C395.577 69.8268 396.643 68.8125 396.567 67.5085C396.491 66.3493 395.501 65.4799 394.283 65.4799Z" fill="white" stroke="#FF4F00" stroke-width="2" stroke-linecap="round" stroke-linejoin="round"/>
<path d="M402.885 205.742C402.885 207.046 401.743 208.132 400.373 208.132C399.003 208.132 397.861 207.046 397.861 205.742C397.861 204.438 399.003 203.351 400.373 203.351C401.743 203.351 402.885 204.438 402.885 205.742Z" fill="white" stroke="#FF4F00" stroke-width="2" stroke-linecap="round" stroke-linejoin="round"/>
<path d="M417.806 88.5911C417.806 89.8952 416.664 90.982 415.294 90.982C413.923 90.982 412.781 89.8952 412.781 88.5911C412.781 87.2871 413.923 86.2003 415.294 86.2003C416.664 86.2003 417.806 87.2871 417.806 88.5911Z" fill="white" stroke="#FF4F00" stroke-width="2" stroke-linecap="round" stroke-linejoin="round"/>
<path d="M593.505 217.116C593.505 218.42 592.363 219.507 590.993 219.507C589.622 219.507 588.48 218.42 588.48 217.116C588.48 215.812 589.622 214.725 590.993 214.725C592.363 214.725 593.505 215.812 593.505 217.116Z" fill="white" stroke="#FF4F00" stroke-width="2" stroke-linecap="round" stroke-linejoin="round"/>
<path d="M307.042 87.8667C307.042 89.1707 305.9 90.2575 304.53 90.2575C303.16 90.2575 302.018 89.1707 302.018 87.8667C302.018 86.5626 303.16 85.4758 304.53 85.4758C305.9 85.4758 307.042 86.5626 307.042 87.8667Z" fill="white" stroke="#FF4F00" stroke-width="2" stroke-linecap="round" stroke-linejoin="round"/>
<path d="M609.796 3.39083C609.796 4.69491 608.654 5.78165 607.284 5.78165C605.913 5.78165 604.771 4.69491 604.771 3.39083C604.771 2.08674 605.913 1 607.284 1C608.654 1 609.796 2.08674 609.796 3.39083Z" fill="white" stroke="#FF4F00" stroke-width="2" stroke-linecap="round" stroke-linejoin="round"/>
<path d="M276.135 222.477C276.135 223.782 274.993 224.868 273.623 224.868C272.253 224.868 271.111 223.782 271.111 222.477C271.111 221.173 272.253 220.087 273.623 220.087C274.993 220.087 276.135 221.173 276.135 222.477Z" fill="white" stroke="#FF4F00" stroke-width="2" stroke-linecap="round" stroke-linejoin="round"/>
<path d="M632.405 166.764C632.405 168.068 631.263 169.155 629.893 169.155C628.523 169.155 627.381 168.068 627.381 166.764C627.381 165.46 628.523 164.373 629.893 164.373C631.263 164.373 632.405 165.46 632.405 166.764Z" fill="white" stroke="#FF4F00" stroke-width="2" stroke-linecap="round" stroke-linejoin="round"/>
</svg>
